<svg xmlns="http://www.w3.org/2000/svg" xmlns:xlink="http://www.w3.org/1999/xlink" width="95" height="100" viewBox="0 0 95 100">
  <defs>
    <linearGradient id="linear-gradient" x1="0.5" x2="0.5" y2="1" gradientUnits="objectBoundingBox">
      <stop offset="0" stop-color="#ed2126"/>
      <stop offset="1" stop-color="#ed204c"/>
    </linearGradient>
  </defs>
  <g id="esim" transform="translate(0)">
    <path id="Path_6368" data-name="Path 6368" d="M72.853,0c4.124,1.489,5.7,3.734,5.7,8.141,0,4.295.021,8.589-.016,12.881-.008.889.25,1.2,1.16,1.168,1.981-.063,3.968-.026,5.952-.016a3.531,3.531,0,0,1,3.806,3.564c.013.162.008.326.01.488.026,2.3-.279,2.031,2.122,2.047,2.526.013,3.384.871,3.387,3.408,0,1.009.01,2.018-.005,3.025a2.559,2.559,0,0,1-2.542,2.761,12.176,12.176,0,0,1-1.95.018c-.863-.063-1.038.37-1.027,1.121.01.707.068,1.223.985,1.145a16.242,16.242,0,0,1,2.047,0,2.4,2.4,0,0,1,2.474,2.467c.036,1.366.031,2.733,0,4.1a2.505,2.505,0,0,1-2.469,2.514c-.746.047-1.5.039-2.245.013-.879-.029-.777.579-.782,1.132s-.065,1.15.8,1.113c.714-.029,1.431-.026,2.146.008a2.533,2.533,0,0,1,2.552,2.634q.031,1.9,0,3.807a2.447,2.447,0,0,1-2.6,2.649c-.714.021-1.431.029-2.146.005-.808-.026-.769.524-.753,1.056s-.151,1.184.733,1.184c.649,0,1.3-.013,1.95.013a2.622,2.622,0,0,1,2.816,2.9c.01,1.171.013,2.342,0,3.512a2.593,2.593,0,0,1-2.719,2.793,12.566,12.566,0,0,1-1.658,0c-.834-.07-1.2.224-1.139,1.1a7.66,7.66,0,0,1-.1,2.138,3.383,3.383,0,0,1-3.428,2.866c-1.95.021-3.9.005-5.856.008a1.359,1.359,0,0,0-1.512,1.562c0,4.456.021,8.913-.008,13.369A7.2,7.2,0,0,1,72.8,99.863a7.324,7.324,0,0,1-1.549.13q-23.761.012-47.52,0a7.143,7.143,0,0,1-7.313-7.275q-.055-6.88.008-13.76c.008-.928-.253-1.254-1.207-1.223-1.95.065-3.9.026-5.853.018A3.556,3.556,0,0,1,5.5,74.048,2.233,2.233,0,0,0,3.04,71.655C.962,71.623,0,70.661-.008,68.593c-.005-1.106-.01-2.211,0-3.317A2.6,2.6,0,0,1,2.677,62.45a10.667,10.667,0,0,1,1.658-.005c.892.081,1.191-.266,1.189-1.166,0-.866-.295-1.173-1.139-1.1a14.658,14.658,0,0,1-1.854,0A2.429,2.429,0,0,1,0,57.657c-.029-1.332-.026-2.667,0-4a2.522,2.522,0,0,1,2.521-2.563c.746-.039,1.5-.023,2.245-.016.9.008.709-.654.73-1.176s.057-1.085-.751-1.061c-.683.021-1.366.016-2.049-.005A2.552,2.552,0,0,1,0,46.145c-.018-1.267-.021-2.537,0-3.807a2.433,2.433,0,0,1,2.55-2.594c.714-.023,1.431-.037,2.146,0,.774.037.832-.443.8-1.012s.162-1.252-.787-1.236c-.683.01-1.369.026-2.049-.018A2.6,2.6,0,0,1-.01,34.633c-.013-1.2-.016-2.407,0-3.611a2.561,2.561,0,0,1,2.573-2.733,13.327,13.327,0,0,1,1.854-.01c.787.055,1.137-.224,1.09-1.051A8.182,8.182,0,0,1,5.6,25.09a3.383,3.383,0,0,1,3.486-2.913c2.015-.018,4.033,0,6.048-.005a1.146,1.146,0,0,0,1.272-1.314c0-1.074-.013-2.146.005-3.22.021-1.3.62-2.042,1.614-2.026s1.556.748,1.575,2.068c.016,1.139.052,2.279-.01,3.416-.05.881.3,1.1,1.131,1.1,5.595-.031,11.19-.016,16.782-.016H74a1.187,1.187,0,0,0,1.343-1.34q0-6.684,0-13.369a4.092,4.092,0,0,0-4.416-4.459c-5.139-.026-10.277,0-15.416-.021-.722,0-.993.232-.957.957a7.459,7.459,0,0,1-.091,2.042A4.844,4.844,0,0,1,50.406,9.83a20.218,20.218,0,0,1-5.829,0,4.848,4.848,0,0,1-4.187-4.881A1.761,1.761,0,0,0,38.4,3H24.155a4.432,4.432,0,0,0-3.52,1.379,3.746,3.746,0,0,0-1.025,2.566c0,1.074.026,2.149-.023,3.22a1.585,1.585,0,1,1-3.157.026,24.95,24.95,0,0,1,.05-3.8C16.9,3.017,18.914.975,22.1,0H72.842ZM47.486,25.243q-18.341,0-36.685.005c-2.266,0-2.109-.433-2.1,2.271,0,.545.242.761.769.751.649-.013,1.3-.016,1.95.008a2.61,2.61,0,0,1,2.834,2.6,25.543,25.543,0,0,1,0,3.995,2.62,2.62,0,0,1-2.831,2.61c-.649.031-1.3.023-1.95.01-.965-.018-.735.691-.769,1.239-.036.568.013,1.048.8,1.009.714-.036,1.431-.018,2.146,0a2.394,2.394,0,0,1,2.576,2.266,17.2,17.2,0,0,1-.018,4.571,2.45,2.45,0,0,1-2.516,2.253c-.746.037-1.5.034-2.245.01-.821-.023-.756.54-.735,1.064s-.2,1.189.72,1.176c.748-.01,1.5-.021,2.245.013A2.451,2.451,0,0,1,14.2,53.334a17.093,17.093,0,0,1,.023,4.571,2.4,2.4,0,0,1-2.565,2.282,15.159,15.159,0,0,1-1.854,0c-.853-.078-1.126.237-1.129,1.1-.005.9.282,1.246,1.178,1.166a10.377,10.377,0,0,1,1.755.01,2.579,2.579,0,0,1,2.638,2.49,19.059,19.059,0,0,1,0,4.188,2.594,2.594,0,0,1-2.717,2.511c-.649.034-1.3.005-1.95.018-.255.005-.61-.068-.717.19a4.23,4.23,0,0,0-.089,2.394c.12.66.79.433,1.238.433q16.538.016,33.074.01a9.159,9.159,0,0,1,1.168.029,1.494,1.494,0,0,1,1.335,1.541A1.437,1.437,0,0,1,44.2,77.743a10.482,10.482,0,0,1-1.072.021c-7.48,0-14.96.01-22.439-.013-.772,0-1.1.19-1.092,1.033q.055,5.073,0,10.148c-.008.84.328,1.043,1.1,1.04q26.78-.02,53.563.005c.873,0,1.113-.305,1.1-1.139-.037-3.155-.016-6.31-.016-9.465a1.4,1.4,0,0,0-1.562-1.609H51.344c-1.319,0-1.955-.5-1.971-1.494-.016-1.022.673-1.562,2.01-1.575.292,0,.587,0,.879,0q15.952,0,31.9-.005c2.26,0,2.1.43,2.1-2.276,0-.548-.253-.756-.774-.746q-.927.02-1.854-.005a2.658,2.658,0,0,1-2.941-2.707,27.21,27.21,0,0,1,0-3.8,2.649,2.649,0,0,1,2.852-2.7c.68-.031,1.366,0,2.049-.021.907-.029.626-.735.66-1.233s.06-1.014-.7-1c-.78.016-1.562.018-2.341-.01a2.365,2.365,0,0,1-2.443-2.078,16.839,16.839,0,0,1-.023-4.761,2.476,2.476,0,0,1,2.537-2.242c.746-.034,1.5-.026,2.245-.013.912.016.707-.654.722-1.171s.094-1.09-.73-1.069c-.748.021-1.5.026-2.245-.01a2.477,2.477,0,0,1-2.521-2.253,16.842,16.842,0,0,1,0-4.665,2.362,2.362,0,0,1,2.461-2.164c.748-.023,1.5-.039,2.242-.005.782.039.829-.441.8-1.009-.034-.548.2-1.257-.769-1.239-.683.01-1.369.023-2.049-.018a2.6,2.6,0,0,1-2.735-2.6,25.864,25.864,0,0,1,0-3.995,2.62,2.62,0,0,1,2.925-2.6c.618-.01,1.236,0,1.854-.01.224,0,.532.037.62-.19a4.334,4.334,0,0,0,.078-2.4c-.123-.654-.793-.428-1.244-.428q-18.732-.016-37.464-.008Zm-.008,67.91H20.849c-1.309,0-1.45.214-.871,1.4.884,1.807,2.443,2.388,4.338,2.388q20.238-.008,40.478,0c2.049,0,4.1.018,6.145-.008a4.157,4.157,0,0,0,4.044-2.381c.571-1.189.433-1.4-.879-1.4H47.475ZM47.527,3c-.972,0-1.95.047-2.92-.013-.839-.052-1.116.313-1.043,1.085.023.258,0,.519.013.777a1.781,1.781,0,0,0,1.961,1.924q1.948.035,3.892,0a1.783,1.783,0,0,0,1.953-1.932c.016-.292-.01-.584.013-.876.052-.694-.214-1.012-.949-.978-.972.044-1.945.01-2.92.01ZM7.005,34.3c.78,0,1.556.008,2.336,0,1.958-.021,1.749.266,1.8-1.857.021-.8-.3-1-1.035-.983-1.718.037-3.436,0-5.154.016-2.067.018-1.856-.331-1.893,1.953-.01.7.284.9.931.881C5,34.278,6,34.3,7.008,34.3Zm80.815,0c.746,0,1.491.008,2.237,0,2.018-.026,1.807.3,1.851-1.9.016-.741-.282-.954-.978-.939-1.718.034-3.436-.005-5.154.013-2.122.023-1.916-.373-1.945,2-.008.649.269.85.876.834,1.038-.026,2.075-.008,3.113-.005ZM6.99,45.65v0h2.24c1.971,0,1.945,0,1.911-1.956-.01-.681-.253-.907-.918-.9-1.752.031-3.5-.008-5.256.016-2.073.026-1.888-.43-1.9,2.029,0,.584.235.819.811.811,1.038-.018,2.075-.005,3.115-.005Zm80.945-2.84c-.746,0-1.494-.008-2.239,0-2.031.029-1.828-.326-1.869,1.877-.013.714.237.986.957.97,1.718-.031,3.439-.01,5.159-.008,2.109,0,2.093,0,1.963-2.094-.034-.532-.219-.761-.759-.751-1.072.021-2.14.005-3.212,0ZM7.1,57.123c.746,0,1.494.008,2.24,0,1.958-.023,1.752.289,1.8-1.849.018-.782-.284-1.017-1.027-1-1.718.037-3.439.01-5.159.01-1.961,0-1.934,0-1.9,1.969.013.694.276.9.931.881,1.038-.037,2.075-.01,3.115-.008Zm80.763,0c.714,0,1.429.01,2.14,0,2.078-.034,1.869.362,1.906-1.937.01-.678-.25-.92-.915-.91-1.752.026-3.5.008-5.256.008-2.023,0-2,0-1.908,2.055.029.589.242.806.819.793,1.069-.023,2.14-.008,3.212-.005ZM7.083,68.463c.714,0,1.426.008,2.14,0,2.088-.029,1.875.323,1.911-1.937.01-.683-.25-.91-.915-.9-1.749.029-3.5-.008-5.253.013-2.08.023-1.888-.4-1.906,2.029-.005.589.235.811.811.8,1.069-.021,2.14-.005,3.209-.005Zm80.7,0c.78,0,1.556.005,2.336,0,1.953-.016,1.742.216,1.794-1.768.021-.785-.211-1.1-1.04-1.077-1.718.052-3.436,0-5.154.018-2.057.021-1.851-.342-1.888,1.958-.01.707.3.894.939.876,1-.031,2.01-.008,3.016-.008Z" transform="translate(0.022)" fill="url(#linear-gradient)"/>
    <path id="Path_6369" data-name="Path 6369" d="M94.141,114.966h27.123c2.649,0,3.883,1.222,3.885,3.868q.008,16.091,0,32.18c0,2.656-1.233,3.9-3.854,3.9q-23.366,0-46.732.018a4.337,4.337,0,0,1-3.3-1.35c-2.3-2.343-4.631-4.657-6.965-6.967a4.193,4.193,0,0,1-1.3-3.143c.016-8.257,0-16.513.01-24.77,0-2.466,1.275-3.737,3.716-3.74q13.709-.008,27.415,0Zm-.065,3.07c-8.876,0-17.754.016-26.63-.021-1-.005-1.265.295-1.259,1.272q.055,11.846.008,23.694a2.311,2.311,0,0,0,.741,1.8q3.176,3.1,6.274,6.276a2.489,2.489,0,0,0,1.969.808q22.728-.031,45.459-.016,1.312,0,1.314-1.368v-31.1c0-1.337,0-1.34-1.343-1.34H94.074Z" transform="translate(-46.574 -84.975)" fill="url(#linear-gradient)"/>
    <path id="Path_6370" data-name="Path 6370" d="M222.413,171.27c.6-2.1,1.131-3.933,1.658-5.762.1-.344.185-.691.3-1.029a1.852,1.852,0,0,1,3.659.211c.427,2.132.821,4.272,1.228,6.409.292,1.53.592,3.06.878,4.592a1.641,1.641,0,0,1-1.2,2.106c-.889.2-1.671-.407-1.895-1.517-.357-1.772-.683-3.552-1.228-5.351-.313,1.069-.628,2.137-.936,3.208-.19.654-.365,1.314-.555,1.97-.352,1.217-.951,1.8-1.866,1.814s-1.564-.537-1.931-1.736c-.532-1.736-1.04-3.479-1.762-5.239q-.4,2.146-.8,4.293c-.078.414-.136.834-.232,1.246a1.612,1.612,0,0,1-1.757,1.34,1.555,1.555,0,0,1-1.3-1.856c.245-1.637.55-3.266.844-4.895q.567-3.163,1.16-6.323A1.9,1.9,0,0,1,218.461,163a1.82,1.82,0,0,1,1.871,1.527c.576,1.861,1.118,3.732,1.678,5.6.089.295.2.584.4,1.144Z" transform="translate(-158.675 -120.491)" fill="url(#linear-gradient)"/>
    <path id="Path_6371" data-name="Path 6371" d="M97.42,177.581c-.975,0-1.947-.005-2.922.005-.214,0-.511-.081-.6.193-.076.24.164.4.318.563a3.294,3.294,0,0,0,3.946.524,2.272,2.272,0,0,1,1.235-.521,1.51,1.51,0,0,1,1.444.977,1.527,1.527,0,0,1-.5,1.837,5.7,5.7,0,0,1-4.165,1.306,6.688,6.688,0,0,1-5.922-4.882,6.375,6.375,0,0,1,2.32-7.277,5.787,5.787,0,0,1,6.6-.261,5.975,5.975,0,0,1,2.961,6.117,1.543,1.543,0,0,1-1.7,1.4c-1.006.034-2.012.008-3.018.008v.008Zm-1.3-3.2c.649,0,1.3-.016,1.944.005s.852-.164.464-.774a2.971,2.971,0,0,0-4.874.01c-.344.547-.185.764.425.758C94.756,174.378,95.436,174.383,96.117,174.383Z" transform="translate(-66.487 -125.03)" fill="url(#linear-gradient)"/>
    <path id="Path_6372" data-name="Path 6372" d="M149.935,162.92a7.334,7.334,0,0,1,4.4,1.407,1.561,1.561,0,1,1-1.757,2.567,4.208,4.208,0,0,0-2.956-.73,1.106,1.106,0,0,0-1.053.868c-.112.586.383.764.8.941,1.048.438,2.122.824,3.154,1.3,2.213,1.014,3.294,2.786,2.953,4.741a4.869,4.869,0,0,1-4.389,3.829A7.007,7.007,0,0,1,145.525,176c-.938-.844-1.045-1.71-.362-2.463.623-.691,1.525-.675,2.406.1a4.022,4.022,0,0,0,3.336,1.014A1.425,1.425,0,0,0,152.3,173.5c.13-.719-.383-1.066-.938-1.306-1.1-.477-2.226-.907-3.334-1.374a3.66,3.66,0,0,1-2.58-3.724,4.025,4.025,0,0,1,2.718-3.784,5,5,0,0,1,1.775-.388Z" transform="translate(-106.985 -120.435)" fill="url(#linear-gradient)"/>
    <path id="Path_6373" data-name="Path 6373" d="M197.355,170.524c0,1.819.01,3.641,0,5.46-.008,1.178-.558,1.874-1.486,1.931s-1.637-.6-1.652-1.77q-.066-5.7.005-11.405a1.562,1.562,0,0,1,1.684-1.733c.886.06,1.439.745,1.447,1.863.016,1.884.005,3.769.005,5.656Z" transform="translate(-143.55 -120.496)" fill="url(#linear-gradient)"/>
  </g>
</svg>
