<svg xmlns="http://www.w3.org/2000/svg" width="1315.749" height="717.435" viewBox="0 0 1315.749 717.435">
  <g id="Group_2977" data-name="Group 2977" transform="translate(-302 -1080.002)">
    <path id="Path_6345" data-name="Path 6345" d="M2526.348,1258.187c-2.856-1.659-10.479-14.1-12.236-11.342-1.733,2.747,11.46,14.522,7.164,15.65-4.277,1.124-1.725,7.437-10.115,8.616s.559,8.324-7.954,10.576-15.671,10.011-15.669,10.009c8.363,13.2,23.59-5.814,27.754-10.911,4.142-5.094,7.454-1.963,16.988-10.973,9.553-9.014-3.06-9.972-5.932-11.624" transform="translate(-1004.064 425.562)" fill="#f0f0f0"/>
    <path id="Path_6346" data-name="Path 6346" d="M2332.083,1289.819a3.578,3.578,0,0,0-2.889,3.218c-1.1,12.432,8.806,2.095,8.568,5.241-.263,3.347,9.055,3.04,12.444.282s-1.446-7.039-1.448-7.038c-3.074-3.48-12.208-2.461-16.676-1.7" transform="translate(-920.883 403.182)" fill="#f0f0f0"/>
    <path id="Path_6347" data-name="Path 6347" d="M2240.125,1063.981c.385-4.871-9.5-31.22-13.724-29.313-4.179,1.9-4.92,23.66-10.344,23.2-4.467-.376-7.86-4.732-8.914-6.245a10.58,10.58,0,0,0-.687-.853,5.494,5.494,0,0,1-1.034-2.171,3.093,3.093,0,0,1,1.4-3.392c4.992-3,4.249-12.631,1.67-12.6-2.843.036-2.035,2.524-5.683,3.2s-7.638-4.313-12.3-4.12-7.88,13.26-10.9,14.188-1.7-4.644-7.235-3.839-20.247,19.366-20.235,19.368-3.424,7.647-15.779,4.832c-8.494.164-16.613,13.029-13.05,27.453,3.543,14.43,5.223,19.269,4.3,26.527-.82,6.452,2.578,10.693,13.55,4.8a12.743,12.743,0,0,1,7.114-1.4c2.083.171,5.7-.62,11.87-4.463,12.343-7.689,28.15-4.439,32.193,5.338,1.608,3.88,3.748,5.7,5.747,6.478a11.2,11.2,0,0,1,6.278,6.292c1.036,2.573,3.365,5.327,8.379,7,10.907,3.647,17.825,2.005,21.017.679a11.274,11.274,0,0,1,4.2-.9c2.993-.03,8.281-1.2,10.25-8.719,2.119-16.288,13.928-7.681,14.272-32.928.313-25.261-22.7-33.554-22.349-38.408" transform="translate(-812.377 538.322)" fill="#f0f0f0"/>
    <path id="Path_6348" data-name="Path 6348" d="M2324.211,968.464c6.528,4.391,15.242-5.665,18.457-8.286s-7.383-9.231-12.587-8.777,3.358,1.5,4.844,7.015-11.273,6.271-15.464,6.035-7.785-4.928-11.062-9.219-18.955-9.622-22.7-10-3.3,5.612-7.334,5.776-.757-6.2-4.022-8.79-12.445-2.309-14.59,1.687,4.052,1.88,6.568,6.857,14.238,8.758,14.239,8.76c11.2,7.649,4.492,11.166,1.43,13.85s11.335,2.448,11.3,4.2,7.5,6.455,12.365.8,8.511-1.418,14.755,4.813,11.519,2.562,11.522,2.561,1.845-3.843-6.98-8.5-.743-8.776-.739-8.778" transform="translate(-884.232 586.18)" fill="#f0f0f0"/>
    <path id="Path_6349" data-name="Path 6349" d="M2286.209,992.281c.839.563,2.209-2.092,1.964-3.274s2.191-.794,3.212-2.3-.971-2-2.993-2.1-3.385,3.719-3.386,3.719a3.376,3.376,0,0,0,1.2,3.958" transform="translate(-897.588 563.041)" fill="#f0f0f0"/>
    <path id="Path_6350" data-name="Path 6350" d="M2232.909,963.264a2.462,2.462,0,0,0,2.626,2.2,31.653,31.653,0,0,0,4.9-.55c1.605-.455,5.841,1.469,8.388-.221s-2.4-2.69-5.578-2.206-2.018-2.241-6.977-1.736c-2.832.289-3.472,1.383-3.364,2.515" transform="translate(-870.367 575.599)" fill="#f0f0f0"/>
    <path id="Path_6351" data-name="Path 6351" d="M2241.8,934.286c1.14.648,2.456.4,2.924-3.557.016-.139.027-.281.029-.42.023-.937.237-5.224,2.206-6.554,2.221-1.494-.978-11.7-3.668-8.2s-4.063,7.821-2.985,10.118c.654,1.391.362,3.561.03,5.055a3.253,3.253,0,0,0,1.463,3.556" transform="translate(-874.064 599.675)" fill="#f0f0f0"/>
    <path id="Path_6352" data-name="Path 6352" d="M2194,998.081c-3.383-1.095-1.864,6.449-6.835,3.06-4.319-2.943-22.565-1.812-27.331-1.446a3.021,3.021,0,0,0-2.428,1.535c-2.048,3.75,6.756,6.211,9.906,8.57,3.536,2.646,2.493-1.122,2.458-4.153s14.771-2.323,12.368-.7-.867,4.44.445,7.089,5.526-6.355,8.617-5.752,6.187-7.1,2.8-8.2" transform="translate(-830.57 556.021)" fill="#f0f0f0"/>
    <path id="Path_6353" data-name="Path 6353" d="M2405.372,293.473c.249-4.68,16.677-1.277-5.178-6.7-.01,0-26.287.56-45.826-2.04s-11.263,16.252,6.723,12.632c18.006-3.624,44.022.784,44.281-3.9" transform="translate(-928.236 930.631)" fill="#f0f0f0"/>
    <path id="Path_6354" data-name="Path 6354" d="M1625.59,1027.158c-2.01,4.682-8.1,2.693-8.626,5.988s7.9,7.68-.427,17.45-.19,8.484,8.846,21.385c9.015,12.905,7.527-13.074,11.618-30.459,0,0-.006,0,6.521-7.425s.753-9.9-5.806-18.045-10.118,6.422-12.124,11.106" transform="translate(-544.932 547.804)" fill="#f0f0f0"/>
    <path id="Path_6355" data-name="Path 6355" d="M868.226,885.21C840.1,865.006,843.793,881,833.1,870.079c-10.728-10.913-19.25-18.513-19.419-23.192s-15.736-10.339-19.642-8.382-8.121-13.5-16.817-13.267-19.479,2.4-25.706-6.683-24.9,4.845-26.1,9.715-8.7.658-10.561-.02S709.333,834,709.335,834s11.008,7.221,12.623,12.635-4.38,11.766-7.574,14.271-4.888,19.658-4.21,30.919,10.487-2.086,13.577,16.954c3.115,19.033,18.59,25.333,21.526,25.239,2.955-.1,11.794,11.911,8.4,21.249s-1.407,19.937-.266,26.335-5.035,23.909-7.794,28.034.617,9.637.465,18.9-5.764,26.382-5.754,26.383c-.035,0-8.452,19.811,8.688,37.063,7.268,7.338,13.466,11.513,18.215,13.886,3.746,1.875,7.483-2.159,5.749-6.221-3.153-7.378-6.678-17.886-5.878-26.846,1.409-15.715,15.571-12.923,10.93-19.291s-8.307-6.252,2.077-16.372c10.415-10.11-4.945-11.584,7.766-13.937s23.238-.024,15.991-10.248,17.679-1.8,19.651-12.253,3.593-30.05,14.414-38.111c10.783-8.067,29.319-28.592,26.828-50.008-2.537-21.431,31.483-7.138,3.47-27.377" transform="translate(-70.432 651.805)" fill="#f0f0f0"/>
    <path id="Path_6356" data-name="Path 6356" d="M544.43,256.887c-3.154-3.85,4.614-7.419,7.707-10.938s5.348-15.569-.113-14.745,3.083-5.614,16.356-7.191,14.773-14.384-.063-10.791-34.05-3.189-36.4-3.16c-2.317-.021-59.637-5.449-75.32,1.1-15.62,6.485-44.5.116-53.56,2.278-8.982,2.1-68.141-1.771-80.39,4.472-12.163,6.192-31.542-1.361-45.7,6.893-14.143,8.255-5.3,9.124-5.3,9.123s-11.209,0-11.666-1.544-20.521-1.612-22.823,1.591a10.062,10.062,0,0,1-8.271,4.585c-3.207.117,14.717,6.465,7.9,6.715s-15.465,5.247-17.435-3.634-4.86-.6-10.4,1.953-15.579-5.628-15.582-5.627-11.583,3.572-17.364,10.044,2.827,8.459-9.264,9.735,4.156,10.357-5.1,11.523,16.294,2.048,19.792-.428c3.517-2.482,9.264-.375,8.933,1.2s6.307,5.594.68,5.82-23.177,4.065-35.591-.867c-12.43-4.933-11.869,5.186-31.939,2.556s-49.366,1.066-58.7-3.186-20.509,1.358-32.319,3.892-12.159,9.221-23.9,7.448,6.921,9.077,15.2,9.45c8.3.371-19.528.971-17.98,4.039,1.564,3.065,10,4.992,21.884,4.007s-3.692,5.675-9.828,6.381-5.613,12.463,2.057,15.607,9.9-4.825,9.106.713,10.924-2.124,13.236,1.293-2.189,8.745-6.268,8.954-33.539,11.562-34.937,14.4c-1.392,2.819,29.229-9.02,33.3-9.216,4.071-.217,21.794-14.451,19.65-10.416s6.461,4.384,9.885,1.077,8.8-13.759,15.065-11.71,19.321-3.272,19.322-3.27,15.8-.739,16.092,3.944,15.139,2.431,17.74,11.7c2.617,9.265,13,17.866,18.226,20.675,5.487,2.944-5.052-9.936-3.1-10.806s7.932,4.724,11,8.886,12.7,4.695,13.4,15.907c.666,11.21-4.653,37.647,18.53,46.766,23.1,9.135,2.137,13.974,22.191,31.454,17.121,14.985,17.576,9.959,15.138,3.47a24.462,24.462,0,0,0-2.792-5.276c-18.209-26.239-3.082-6.41-3.082-6.411.016,0,19.231,24.955,23.847,24.373s-6.17,12.754,10.039,17.152c16.189,4.406,24.631,13.3,30.816,12.6s-3.946-9.169-3.951-9.167a12.059,12.059,0,0,1,7.357,4.58c2.78,3.9,7.359,11.447,12.819,9.812s17.9,2.95,18.461,13.565c0,0,7.949,5.293,6.958-5.838s10.093-2.555,5.875-10.98-11.229-10.132-17.743-9.509-6.174-.166-4.974-6.447,16.44-17.725,6.722-18.943-17.017.22-16.31,6.04-1.179,6.67-2.337,6.714-13.074,7.9-17.873-1.271-5.941-15.371-4.888-17.362-.282-18.711,9.445-19.075,17.446,6.378,20.309,1.6,7.222-11.161,10.351-2.7,8.817-10.425,10.145,1.214,6.857,21.967,9.68,16.423,6.394-12.278-.868-18.661,5.5-15.752,10.412-19.016,9.943-13.145,9.719-18.973,10.526.855,14.077-8.189,5.78-12.608,13.163-12.807,11.827,5.131,13.6-.357,11.6-1.846,11.856-6.126,3.2-10.182-.3-10.1-11.665.289-11.666.289-9.606,4.134-6.226.16,7.642-4.859,8.351-7.209,6.551-2.494,6.55-2.494,1.5-8.586,4.241-4.765S415,342.9,415,342.9s1.21,3.469.17,6.212.669,8.144,4.551,8.054,10.961,3.249,10.961,3.249,6.658-12.965-2.754-16.256-6.163,2.47-5.276-8.429-23.17-6.456-27.086-20.338-3.807-10.4-11.184-7.877-12.071,2.968-14.175-1.8-9.1-2.243-14.353-6.758-11.839-.826-11.519-3.168,5.355-5.209,8.5-5.3,14.449,9.313,18.75,8.81,11.5,3.971,14.176,1.571,9.5-11.507,4.8-11.389a10.691,10.691,0,0,1-8.748-4.051c-1.219-1.524,7.059-.57,9.03-.229s19.525-4.361,3.3-9.406c-16.244-5.035-17.925-8.479-16.769-9.677,1.172-1.207-31.015-9.272-35.085-12.251-4.04-2.993-14.492-7.738-5.526-13.442s20.293-12.62,26.239-12.389,16.584-1.631,14.238-.389,7.886-.961,4,2.245-11.91-2.024-14.156,3.474,8.59,11.815,13.713,11.686,25.513-5.675,29.987,1.607,8.233,17.679,12.932,17.188,7.576,6.051,4.489,8.447,4.744,20.481,7.477,20.425,15.113,12.9,15.108,12.9,2.31-1.6,9.376.986,13.224-1.014,8.4-9.083,20.107-9.663,23.141-15.134,15.449-10.716,31.019-12.457,24.844-9.192,21.694-13.045" transform="translate(301.475 970.826)" fill="#f0f0f0"/>
    <path id="Path_6357" data-name="Path 6357" d="M1154.22,358.139c1.476-3.773-29.287.257-29.29.272-6.671,3.328,1.645,6,8.733,10.723s20.475.132,28.433-5.995-9.349-1.244-7.877-5" transform="translate(-287.352 892.808)" fill="#f0f0f0"/>
    <path id="Path_6358" data-name="Path 6358" d="M1434.267,240.574c8.354.059,19.965-5.273,13.212-5.331s-40.817-8.3-62.366,1.908c.007,0,17.318,15.706,24.7,12.549s7.735-7,19.272-1.49,12.217-2.039,4.2-4.391-7.376-3.3.98-3.245" transform="translate(-425.244 958.167)" fill="#f0f0f0"/>
    <path id="Path_6359" data-name="Path 6359" d="M1731.868,235.25c13.4.272,6.931-1.465,9.822-4.467s-7.683-2.723-11.375-.232-11.771-.381-17.068,1.2c0,0-6.136,3.838-4.147,6.686s9.37-3.452,22.768-3.185" transform="translate(-595.143 959.971)" fill="#f0f0f0"/>
    <path id="Path_6360" data-name="Path 6360" d="M712.5,761.3c3.061-.1,5.577-10.658,7.059-11.334s14.722,2.723,12.568-.391,2.745-6.326-7.939-8.548-10.242-3.246-13.866-5.173-19.764-.877-9.416,3.882c0,0,13.017-2.469,10.329,4.763s-1.8,16.9,1.265,16.8" transform="translate(-64.213 694.126)" fill="#f0f0f0"/>
    <path id="Path_6361" data-name="Path 6361" d="M803.421,769.322c4.454-1.657-11.918-8.888-11.927-8.884-3.825,3.913,6.8,3.349,3.82,7.077s3.662,3.462,8.107,1.807" transform="translate(-113.127 680.737)" fill="#f0f0f0"/>
    <path id="Path_6362" data-name="Path 6362" d="M1403.243,731.23c-1.758-1.851-.976-3.859.917-5.7-3.594-4.086-3.3-14.81-11.718-16.6-9.72-2.048-25.291-18.3-25.459-25.492-.2-7.141-20.312-7.145-23.33-12.461-3.032-5.258-16.215-10.692-15.9-14.754.308-3.973-29.762-.243-36.3-4.337-6.507-3.772-54.74,2.772-54.667-3.706.073-4.6-15.294,2.464-24.966,1.531-.507,5.161-1.705,12.261-7.763,13.025-7.678.968-16.424,25.129-13.588,44.327s12.8,44.028,29.936,46.492c17.159,2.435,54.923,2.334,54.928,19.5.04,17.142,15.029,27.008,15.021,27.013s4.463,12.473-1.027,23.9c-5.462,11.426,8.39,27.023,5.864,41.57-2.485,14.539,14.2,19.253,12.659,30.163-1.512,10.907,8.157,23.923,17.954,18.263,9.823-5.661,16.609-.929,19.6-5.582s17.936-20.106,18.553-26.333c.6-6.232,8.883-1.463,9.03-9.257s-5.666-14.1-2.637-17.7,21.048-12.742,21.163-17.415-1.112-17.691-2.882-29.149-4.658-19.819,13.767-35.684,32.119-34.907,28.212-41.186-22.413,4.809-27.363-.421" transform="translate(-322.758 740.505)" fill="#f0f0f0"/>
    <path id="Path_6363" data-name="Path 6363" d="M1946.334,306.877c-25.529-5.7-64.729-5.729-84.229-13.209-19.56-7.491-41.274-4.071-41.963-3.164s-14.562-7.84-28.491-8.429-23.981,6.8-39.635,3.666c-15.631-3.113-11.563-9.221-47.819-9.643-36.171-.372-8.474-4.673-24.042-8.031-15.549-3.343-9.7-6.254-19.94-5.666,0,0-3.488-9.566-14.047-11.227s-20.834-4.4-26.127-8.516-24.557,1.926-20.993,3.35,21.768,9.432,28.314,8.758,23.483,5.583,8.135,6.637-48.363,2.449-58.514,6.076c-10.173,3.609-23.793,6.722-27.637,2.749s-10.228,8.383-10.226,8.383-13.372-8.18-20.108-5.565-9.045,7.249-9.044,7.249,1.807,7.2-12.3,3.886-36.758-10.293-22.275-13.63,45.7-4.635,46.6-7.635-17.306-14.969-25.454-10.711-29.282,4.157-31.02,9.643-19.821,9.057-10.478,15.534c9.332,6.459,41.756,8.424,28.671,11.22s-33.529-.838-44.4,5.628-29.494-7.249-29.5-7.245c.016-.016-38.685-15.527-62.883-6.126-24.165,9.39-18.211-.057-31.674,14.527-13.442,14.59-30.406,9.5-30.391,18.971s8.5,21.817,15.669,17.615,13.461.6,7.179,2.7-8.974-3.3-10.464,3.3.606,10.194-6.559,10.506-8.62,15.315-12.81,9.928-2.73-13.488-10.2-13.458-8.143-14.658-2.764-17.383,11.641-10.542,6.548-10.524-11.97,3.951-13.454,6.359-14.955,3.686-17.019,8.2,11.72,8.021,5.15,9.563-12.308-5.611-14.274,10,14.664,4.687,14.668,4.692,7.976-14.145,5.053-3.631-.5,14.7,3.359,12.877,5.4,6.569,2.436,8.984,11.315-.057,7.473,5.661-11.262,7.55-21.966,7.925,1.857,9.284-1.341,18.305c-1.571,4.471,1.642,7.371,4.03,10.109,6.027-1.067,25.179-3.827,43.87,1.384,22.578,6.235,18.891-6.486,28.536-6.523,9.649.015,39.853.776,37.758,6.723-2.168,6.253,30.53.595,22.947,11.784-7.6,11.27-22.167,10.6-15.486,17.993,6.685,7.43,24.545,6.621,26.112,10.557,1.547,3.991,19.083,14.549,21.147,20.523,2.024,6.014,13.6,19.629,18.842,20.582,3.4.631,7.562,4.427,10.064,7,4.264-.765,28.481-9.432,30.09-12.962,1.61-3.615,19.663-10.022,12.752-19s-6.826-13.662,10.092-13.32c16.944.351,22.748,27.557,27.542,21.425,4.856-6.133,10.712,45.023,17.775,45.216,7.14.187,16.237,25.448,16.635,4.105s1.36-33.295,8.64-35.693c7.264-2.4,21.79-17.592,31.067-17.3s-1.8,17.137,8.143,24.239c9.925,7.106,14.581-3.679,12.41,8.761s-3.152,33.015,8.032,37.2c18.179,6.8-17.732-4.939-17.738-4.919.005,0,1,26.677,11.961,37.825,10.977,11.152-1.618-12.311-1.637-12.308.081,0,19.742,39.894,54.694,37.377.008.014,8.858-12.229-25.029-12.615,0,0-7.235-5.5-6.229-12.268,0,0,8.385,2.407,10.939-.521s-16.4-15.32-15.769-28.373c.645-13.066-14.165-12.233-12.342-24.539s5.08-8.072,11.754.426,8.721,9.366,17.285-1.313,22.32-.3,25.091,7.69,2.633,15.852-6.148,17.258-10.83,9.394-16.242,9.767-4.9,16.715,2.957,19.595c7.868,2.88,15.228,9.1,20.408,1.449s-.967-4.965,2.761-8.742a33.287,33.287,0,0,0,2.962-3.459,36.246,36.246,0,0,0-2.076,10.316c.133,2.556,1.675,17.374,4.775,11.264s3.7-.309,6.4-.592,8.778,1.768,7.691-2.28-7.586-7.616-5.672-9.89,7.154-3.3,6.016-4.8-4.227-4.2-12.75-.919c0,0-.912-5.688,11.709-3.954s9.374-7.83,6.974-7.308-11.471,4.568-17.112,2.551a2.972,2.972,0,0,0-3.177.785c.7-1.812.89-3.521.221-4.85-1.724-3.422-1.006-8.312,3.238-8.13s18.561,5.744,19.034-.734,10.107.159,10.375-7.971-5.863-16.21-5.4-22.97-11.574-4.239-10.678-9.282,4-18.13,1.129-17.235-12.078,2.878-9.4,13.494,7.666,29.138,6.569,28.753-19.038-6.244-19.457-15.74c-.415-9.513-24.719-13.594-24.307-20.773s3.8-15.4,8.35-15.225c4.505.163,35.683-15.647,36.183-29.66.453-14.021-7.261-19.263-.711-20.516s-5.833-4.788,4.046-10.837,19.07-5.666,9.9-6.046-20.244,10.82-20.129,1.027,6.848-8.915,6.85-8.914q1.913,1.761,3.824,3.521s4.107-3.816,6.783.275,13.16-4.732,8.36,18.274c0,0,3.9,7.446,11.734-.639s-.089-9.793-2.739-15.592,12.913-16.068,19.948-13.712c6.993,2.349,28.961-18.988,28.084-23.354-.9-4.366,1.386-15.2,3.654-6.441s1.087,19.867-2.894,24.015-8.758,10.084-9.211,17.126-11.9,16.093-16,15.456c-4.114-.642-20.548,5.018-20.364,13.223s4.9,5.678,9.544,1.328,7.848-4.207,10.828-4.073,5.178-1.818,9.539-1.619,12.97-1,12.977-4.417,7.148-9.926,7.521-15.38-7.279-9-1.612-10.56,1.28,1.654,7.77-1.692,8.461-8.27,4.53-8.68-6.443-4.627-5.151-6.62,4.575-5.944,1.846-6.98-3.255-3.794.042-4.327,6.123,2.786,1.535-5.854-2.768-15.841-2.766-15.842-14.541.945-21.953-3.924c-7.447-4.875,23.354-16.511,23.387-16.5-.029-.022,44.124,7.431,46.261,2.111,2.1-5.342,3.348-11.212,8.063-9.3s7.04,6.688,9.812,4.7,8.973-9.059,8.206-4.139-4.542,8.552-8.925,8.342-20.171,6.242-20.6,13,6.62,12.179,2.815,16.659,3.909,6.546,6.732,3.717a113.492,113.492,0,0,0,9.495-10.561c2.417-3.275,12.665-5.316,12.677-11.677s.027-13.143,4.863-12.908,19.092,4.758,23.281,2,8.091-7.8,21.87-7.672c-.011,0,19.614,3.528,9.695-9.236.7-9.4,28.027,9.608,32.086,4.481s15.472-14.632-10.034-20.337M1396.27,398.6c.125,4.125-9.053,4.018-11.29,6.2-2.241,2.2-12.644-1.007-20.632.708s-13.105-6.266-18.477-9.475-1.615-4.969,2.554-7.719c5.129-3.389,6.047-2.089,7.1-7.116s4.194,5.846,11.143,7c5.726.947,5.964-.975,10.89-5.711,7.019-6.758,16.3-.8,16.3-.805,7.238,1.669,4.348,5.5,6.306,7.3s-4.02,5.5-3.9,9.612" transform="translate(-344.697 953.337)" fill="#f0f0f0"/>
    <path id="Path_6364" data-name="Path 6364" d="M510.7,1403.31H125.267a11.191,11.191,0,1,1,0-22.383H510.7a11.191,11.191,0,1,1,0,22.383" transform="translate(242.105 354.954)" fill="#f0f0f0"/>
    <path id="Path_6365" data-name="Path 6365" d="M697.883,1485.787H312.454a11.191,11.191,0,0,1,0-22.383H697.883a11.191,11.191,0,0,1,0,22.383" transform="translate(143.824 311.649)" fill="#f0f0f0"/>
    <path id="Path_6366" data-name="Path 6366" d="M109.743,1485.787H51.262a11.191,11.191,0,0,1,0-22.383h58.481a11.191,11.191,0,0,1,0,22.383" transform="translate(280.961 311.649)" fill="#f0f0f0"/>
    <path id="Path_6367" data-name="Path 6367" d="M1108.863,1403.31h-58.481a11.191,11.191,0,0,1,0-22.383h58.481a11.191,11.191,0,0,1,0,22.383" transform="translate(-243.619 354.954)" fill="#f0f0f0"/>
    <rect id="Rectangle_1594" data-name="Rectangle 1594" width="1315.749" height="717.435" transform="translate(302 1080.002)" fill="none"/>
  </g>
</svg>
