<svg id="Group_4066" data-name="Group 4066" xmlns="http://www.w3.org/2000/svg" xmlns:xlink="http://www.w3.org/1999/xlink" width="70.28" height="100" viewBox="0 0 70.28 100">
  <defs>
    <linearGradient id="linear-gradient" x1="0.5" x2="0.5" y2="1" gradientUnits="objectBoundingBox">
      <stop offset="0" stop-color="#ed2126"/>
      <stop offset="1" stop-color="#ed204c"/>
    </linearGradient>
  </defs>
  <path id="Path_6374" data-name="Path 6374" d="M49.189,0a11.772,11.772,0,0,1,5.072,2.981c4.2,3.871,8.432,7.742,12.7,11.546a9.689,9.689,0,0,1,3.315,7.7V93.749a13.77,13.77,0,0,1-.178,2.336A4.941,4.941,0,0,1,65.274,100H5.072A4.957,4.957,0,0,1,.156,95.6a15.211,15.211,0,0,1-.111-1.758Q-.022,49.889,0,5.94A5.933,5.933,0,0,1,1.713,1.246,6.964,6.964,0,0,1,3.916,0h45.3ZM3.582,49.967v44.2c0,1.824.534,2.38,2.38,2.38H64.318c1.847,0,2.38-.556,2.38-2.38v-72.3a5.526,5.526,0,0,0-1.78-4.36c-4.494-4.093-9.032-8.142-13.5-12.28A6.772,6.772,0,0,0,46.542,3.4H6.14C4,3.4,3.56,3.849,3.56,5.962v44Z" fill="url(#linear-gradient)"/>
  <path id="Path_6375" data-name="Path 6375" d="M30.546,23.92H51.815a5.122,5.122,0,0,1,5.5,5.473V58.581a5.15,5.15,0,0,1-5.5,5.5H9.255a5.128,5.128,0,0,1-5.5-5.5V29.393a5.122,5.122,0,0,1,5.5-5.473H30.524ZM18,48.9h9.655c.779,0,1.112-.178,1.09-1.023q-.067-3.9,0-7.809c0-.845-.334-1.023-1.09-1.023-2.825.022-5.651,0-8.476,0a3.409,3.409,0,0,1-3.715-3.693c0-2.269-.022-4.561,0-6.83,0-.8-.245-1.112-1.046-1.09-1.691.044-3.382,0-5.072,0-1.535,0-1.98.467-1.98,1.98V47.747c0,.845.245,1.135,1.112,1.112,3.181-.044,6.363,0,9.566,0Zm14.327-4.894v3.982c0,.645.2.934.89.934,2.625-.022,5.25-.022,7.9,0,.645,0,.957-.178.934-.89V39.96c0-.6-.2-.89-.845-.868-2.67,0-5.317.022-7.987,0-.712,0-.89.289-.89.934.022,1.335,0,2.67,0,3.982Zm13.3,0c0,1.335.022,2.67,0,4,0,.645.178.934.89.934q3.17-.033,6.341,0c.69,0,.89-.267.89-.934V40.027c0-.645-.2-.934-.89-.934q-3.17.033-6.341,0c-.69,0-.912.267-.89.934.022,1.335,0,2.67,0,4Zm-21.714-8.5H27.81c.667,0,.934-.245.934-.912-.022-2.047,0-4.093,0-6.14,0-.645-.178-.957-.89-.957h-7.9c-.645,0-.934.245-.934.912,0,2.047.022,4.093,0,6.14,0,.734.311.979,1,.957C21.313,35.488,22.626,35.511,23.916,35.511Zm13.237,0h4c.6,0,.89-.245.89-.868V28.392c0-.69-.289-.912-.934-.912h-7.9c-.623,0-.868.245-.868.868V34.6c0,.69.289.912.934.912,1.29-.022,2.6,0,3.893,0ZM23.916,60.494H27.81c.667,0,.934-.245.934-.912-.022-2.047,0-4.093,0-6.14,0-.645-.178-.957-.89-.957h-7.9c-.645,0-.934.245-.934.912,0,2.047.022,4.093,0,6.14,0,.734.311.979,1,.957C21.313,60.472,22.626,60.494,23.916,60.494Zm13.26,0c1.268,0,2.536-.022,3.8,0,.823.022,1.09-.311,1.068-1.09-.044-1.958-.044-3.893,0-5.851,0-.8-.267-1.112-1.068-1.09q-3.8.033-7.609,0c-.734,0-1.068.2-1.046,1,.044,2.024.022,4.027,0,6.051,0,.712.245,1,.957.979,1.29-.022,2.6,0,3.893,0ZM45.63,31.506v3.115c0,.6.2.89.845.89H52.9c.556,0,.845-.2.845-.8V29.059a1.378,1.378,0,0,0-1.513-1.535c-1.913-.044-3.827,0-5.74-.022-.645,0-.845.289-.845.89.022,1.046,0,2.069,0,3.115ZM15.44,56.534c0-1.046-.022-2.069,0-3.115,0-.645-.222-.957-.89-.934H8.232c-.6,0-.89.222-.89.845v5.54A1.4,1.4,0,0,0,8.9,60.45c1.891.044,3.76,0,5.651.022.69,0,.912-.311.89-.957-.022-1,0-2,0-3.026Zm30.19-.044c0,1,.022,2,0,3.026-.022.69.2,1,.934,1,1.824-.022,3.626,0,5.451,0,1.157,0,1.691-.512,1.691-1.669.022-1.824,0-3.626,0-5.451,0-.6-.222-.89-.845-.89h-6.43c-.645,0-.845.289-.845.89.022,1.046,0,2.069,0,3.115Z" transform="translate(4.605 29.295)" fill="url(#linear-gradient)"/>
  <path id="Path_6376" data-name="Path 6376" d="M44.322,14.241a1.573,1.573,0,0,1-.89,1.379,1.677,1.677,0,0,1-2-.222A29.532,29.532,0,0,0,37.2,12.417a23.251,23.251,0,0,0-25.674,2.091c-.378.311-.734.623-1.135.912a1.745,1.745,0,0,1-2.247-2.67,24.5,24.5,0,0,1,4.16-3.07,26.762,26.762,0,0,1,31.058,2.692,2.249,2.249,0,0,1,1,1.847Z" transform="translate(9.229 7.271)" fill="url(#linear-gradient)"/>
  <path id="Path_6377" data-name="Path 6377" d="M34.021,14.962a1.78,1.78,0,0,1-.934,1.468,1.642,1.642,0,0,1-1.913-.156,15.128,15.128,0,0,0-4.561-2.38A14.225,14.225,0,0,0,14,15.829c-.178.133-.378.267-.556.4A1.777,1.777,0,1,1,11.4,13.338a17.435,17.435,0,0,1,9.032-3.56,17.963,17.963,0,0,1,12.5,3.382,2.2,2.2,0,0,1,1.09,1.78Z" transform="translate(12.877 11.869)" fill="url(#linear-gradient)"/>
  <path id="Path_6378" data-name="Path 6378" d="M19.284,13.41a8.647,8.647,0,0,1,5.584,2.225,1.8,1.8,0,0,1,.289,2.6,1.658,1.658,0,0,1-2.514.111,4.851,4.851,0,0,0-6.719,0,1.667,1.667,0,0,1-2.581-.111,1.851,1.851,0,0,1,.356-2.6,8.532,8.532,0,0,1,5.584-2.225Z" transform="translate(15.867 16.424)" fill="url(#linear-gradient)"/>
  <path id="Path_6379" data-name="Path 6379" d="M18.55,18.891a1.839,1.839,0,0,1-1.824,1.78,1.726,1.726,0,0,1-1.735-1.8,1.78,1.78,0,0,1,3.56.022Z" transform="translate(18.359 20.953)" fill="url(#linear-gradient)"/>
</svg>
