<?xml version="1.0" encoding="UTF-8"?>
<svg id="Layer_1" xmlns="http://www.w3.org/2000/svg" version="1.1" viewBox="0 0 100.8 31.4">
  <!-- Generator: Adobe Illustrator 29.1.0, SVG Export Plug-In . SVG Version: 2.1.0 Build 142)  -->
  <defs>
    <style>
      .st0 {
        fill-rule: evenodd;
      }

      .st0, .st1 {
        fill: #fff;
      }
    </style>
  </defs>
  <g>
    <path class="st1" d="M45.6,28.2c0,0,0,.2,0,.2s0,.2,0,.2h.9v2.6c0,0,.2,0,.3,0s.2,0,.3,0v-2.6h.9c0,0,0-.2,0-.2s0-.2,0-.2h-2.4Z"/>
    <path class="st1" d="M51,28.2v1.2h-1.4v-1.2c0,0-.2,0-.3,0s-.2,0-.3,0v3c0,0,.2,0,.3,0s.2,0,.3,0v-1.3h1.4v1.3c0,0,.2,0,.3,0s.2,0,.3,0v-3c0,0-.2,0-.3,0s-.2,0-.3,0Z"/>
    <path class="st1" d="M53.4,30.8v-.8h1.3c0,0,0-.2,0-.2s0-.2,0-.2h-1.3v-.8h1.4c0,0,0-.2,0-.2s0-.2,0-.2h-2v3h2c0,0,0-.2,0-.3s0-.2,0-.2h-1.5Z"/>
    <path class="st1" d="M58.6,28.2c0,0-.2,0-.3,0l-1.1,3c0,0,.2,0,.3,0s.2,0,.2,0l.3-.7h1.2l.3.7c0,0,.2,0,.2,0,.1,0,.2,0,.3,0l-1.1-3c0,0-.2,0-.3,0ZM58.2,30.1l.3-.9v-.3c0,0,.2.3.2.3l.4.9h-.9Z"/>
    <path class="st1" d="M63.2,29.1c0-.6-.4-.9-1.2-.9s-.7,0-1,0v3c0,0,.2,0,.3,0s.2,0,.3,0v-1.1c.2,0,.3,0,.4,0h0l.7,1.1s.1,0,.2,0c.2,0,.3,0,.4,0l-.7-1.2c.4-.2.6-.5.6-.9ZM62,29.7c-.1,0-.3,0-.5,0v-1c.1,0,.3,0,.5,0,.4,0,.6.2.6.5s-.2.5-.6.5Z"/>
    <path class="st1" d="M64.1,28.2c0,0,0,.2,0,.2s0,.2,0,.2h.9v2.6c0,0,.2,0,.3,0s.2,0,.3,0v-2.6h.9c0,0,0-.2,0-.2s0-.2,0-.2h-2.4Z"/>
    <path class="st1" d="M70.4,28.1c-.9,0-1.6.7-1.6,1.6s.7,1.6,1.6,1.6,1.6-.7,1.6-1.6-.7-1.6-1.6-1.6ZM70.4,30.9c-.6,0-1-.5-1-1.1s.4-1.1,1-1.1,1,.4,1,1.1-.4,1.1-1,1.1Z"/>
    <path class="st1" d="M73,28.2v3c0,0,.2,0,.3,0s.2,0,.3,0v-1.2h1.2c0,0,0-.2,0-.2s0-.2,0-.2h-1.2v-.9h1.4c0,0,0-.2,0-.2s0-.2,0-.2h-1.9Z"/>
    <path class="st1" d="M77.2,28.2c0,0,0,.2,0,.2s0,.2,0,.2h.9v2.6c0,0,.2,0,.3,0s.2,0,.3,0v-2.6h.9c0,0,0-.2,0-.2s0-.2,0-.2h-2.4Z"/>
    <path class="st1" d="M81.1,30.8v-.8h1.3c0,0,0-.2,0-.2s0-.2,0-.2h-1.3v-.8h1.4c0,0,0-.2,0-.2s0-.2,0-.2h-2v3h2c0,0,0-.2,0-.3s0-.2,0-.2h-1.5Z"/>
    <path class="st1" d="M84.3,30.8v-2.6c0,0-.2,0-.3,0s-.2,0-.3,0v3h1.9c0,0,0-.2,0-.2s0-.2,0-.2h-1.3Z"/>
    <path class="st1" d="M87.2,30.8v-.8h1.3c0,0,0-.2,0-.2s0-.2,0-.2h-1.3v-.8h1.4c0,0,0-.2,0-.2s0-.2,0-.2h-2v3h2c0,0,0-.2,0-.3s0-.2,0-.2h-1.5Z"/>
    <path class="st1" d="M91.8,30.6c-.2.1-.3.2-.7.2-.6,0-1-.4-1-1.1s.4-1.1,1-1.1.4,0,.6.2c.2,0,.3-.3.3-.4-.2-.2-.5-.3-.9-.3-.9,0-1.6.7-1.6,1.6s.6,1.6,1.5,1.6.8-.2,1-.3c0-.2-.1-.3-.3-.4Z"/>
    <path class="st1" d="M94.5,28.1c-.9,0-1.6.7-1.6,1.6s.7,1.6,1.6,1.6,1.6-.7,1.6-1.6-.7-1.6-1.6-1.6ZM94.5,30.9c-.6,0-1-.5-1-1.1s.4-1.1,1-1.1,1,.4,1,1.1-.4,1.1-1,1.1Z"/>
    <path class="st1" d="M99.9,28.2c-.1,0-.2,0-.3,0l-.9,2.1v.2s-.1-.2-.1-.2l-.9-2.1c0,0-.2,0-.3,0-.1,0-.2,0-.3,0v3c0,0,.2,0,.3,0s.2,0,.3,0v-2.1s0,.2,0,.2l.7,1.6c0,0,.2,0,.2,0s.1,0,.2,0l.7-1.6v-.2c0,0,0,.4,0,.4v1.7c0,0,.2,0,.3,0s.2,0,.3,0v-3c0,0-.2,0-.3,0Z"/>
  </g>
  <g>
    <path class="st1" d="M55.9,2c-1.2,0-2.2.4-2.9.8-.7-.5-1.7-.8-2.9-.8-2.2,0-3.9.9-4.5,1.5v7.7c.5,0,.9.1,1.4.1s.9,0,1.4-.1v-6.3c.3-.2.8-.4,1.4-.4,1,0,1.6.6,1.6,1.7v5c.5,0,.9.1,1.4.1s.9,0,1.4-.1v-5.6c0-.2,0-.4,0-.6.3-.2.8-.5,1.5-.5,1.1,0,1.6.6,1.6,1.7v5c.5,0,.9.1,1.4.1s.9,0,1.4-.1v-5.6c0-2.1-1.3-3.6-4.1-3.6Z"/>
    <path class="st1" d="M66.4,2c-2.8,0-4.9,1.9-4.9,4.8s2,4.7,4.9,4.7,4.9-1.9,4.9-4.7-2-4.8-4.9-4.8ZM66.4,9.2c-1.3,0-2.1-1-2.1-2.4s.8-2.4,2.1-2.4,2.1,1,2.1,2.4-.8,2.4-2.1,2.4Z"/>
    <path class="st1" d="M75.5,11.2v-6.3c.3-.2.8-.4,1.5-.4,1,0,1.7.5,1.7,1.7v5c.5,0,.9.1,1.4.1s.9,0,1.4-.1v-5.4c0-2.2-1.3-3.8-4.3-3.8s-3.8.9-4.5,1.5v7.7c.5,0,.9.1,1.4.1s.9,0,1.4-.1Z"/>
    <path class="st1" d="M89.5,8.6c-.3.3-.7.5-1.2.5-.8,0-1.3-.3-1.3-1.4v-3h3.1c0-.4.1-.8.1-1.2s0-.8-.1-1.1h-3.1V.1c-.4,0-.9-.1-1.4-.1s-.9,0-1.4.1v2.3h-1.5c0,.4,0,.7,0,1.1s0,.8,0,1.2h1.5v3.7c0,2.2,1.5,3,3.6,3s2.3-.5,2.9-1c0-.7-.6-1.6-1.2-1.9Z"/>
    <path class="st1" d="M92.2,13.3c.2.8.8,1.6,1.7,1.9,4-2.9,6.2-7.1,7-12.7-.5-.1-1.1-.2-1.8-.2s-.8,0-1.1,0c-.3,2.1-.7,4.3-1.5,6.1,0,.1-.1.3-.2.5,0-.1,0-.3-.2-.5-.8-1.8-1.4-4-1.7-6.1-.3,0-.7,0-1.1,0-.8,0-1.7.1-2,.2.7,3.2,1.5,5.6,3.3,8.5-.6.8-1.4,1.6-2.4,2.4Z"/>
    <path class="st1" d="M76.9,16.6c-.6,0-1.1,0-1.5.2v-3.3c-.5,0-.9-.1-1.4-.1s-.9,0-1.4.1v11.5c1,.5,2.4.8,3.9.8,3.2,0,5.2-1.8,5.2-4.7s-2.1-4.5-4.8-4.5ZM76.7,23.5c-.4,0-.8,0-1.3-.2v-4.2c.4-.1.8-.2,1.3-.2,1.4,0,2.2,1,2.2,2.3s-.8,2.3-2.2,2.3Z"/>
    <path class="st1" d="M84.4,12.4c-.9,0-1.7.7-1.7,1.6s.8,1.7,1.7,1.7,1.7-.8,1.7-1.7-.8-1.6-1.7-1.6Z"/>
    <path class="st1" d="M83,16.8v8.7c.5,0,.9.1,1.4.1s.9,0,1.4-.1v-8.7c-.5,0-.9-.1-1.4-.1s-.9,0-1.4.1Z"/>
    <path class="st1" d="M87.5,13.5v12.1c.5,0,.9.1,1.4.1s.9,0,1.4-.1v-12.1c-.5,0-1-.1-1.4-.1s-.9,0-1.3.1Z"/>
    <path class="st1" d="M96.3,16.4c-2.7,0-4.6,2-4.6,4.8s2,4.7,4.7,4.7,3.1-.7,3.9-1.3c0-.7-.4-1.4-1-1.9-.7.4-1.5.9-2.6.9s-2-.6-2.2-1.8h5.9c0-.4,0-.9,0-1.3,0-2.5-1.7-4.1-4.2-4.1ZM94.5,20.2c.1-1,.7-1.7,1.8-1.7,1.1,0,1.6.8,1.6,1.7h-3.4Z"/>
    <path class="st1" d="M55.9,16.4c-1.2,0-2.2.4-2.9.8-.7-.5-1.7-.8-2.9-.8-2.2,0-3.9.9-4.5,1.5v7.7c.5,0,.9.1,1.4.1s.9,0,1.4-.1v-6.3c.3-.2.8-.4,1.4-.4,1,0,1.6.6,1.6,1.7v5c.5,0,.9.1,1.4.1s.9,0,1.4-.1v-5.6c0-.2,0-.4,0-.6.3-.2.8-.5,1.5-.5,1.1,0,1.6.6,1.6,1.7v5c.5,0,.9.1,1.4.1s.9,0,1.4-.1v-5.6c0-2.1-1.3-3.6-4.1-3.6Z"/>
    <path class="st1" d="M66.4,16.4c-2.8,0-4.9,1.9-4.9,4.8s2,4.7,4.9,4.7,4.9-1.9,4.9-4.7-2-4.8-4.9-4.8ZM66.4,23.6c-1.3,0-2.1-1-2.1-2.4s.8-2.4,2.1-2.4,2.1,1,2.1,2.4-.8,2.4-2.1,2.4Z"/>
  </g>
  <g>
    <path class="st1" d="M11.2,20.5c0,3.2-2.5,5.8-5.6,5.8S0,23.7,0,20.5s2.5-5.8,5.6-5.8,5.6,2.6,5.6,5.8"/>
    <path class="st0" d="M17.7,4.9c-.6-1.9-1.5-3.4-4.6-3.4-3,0-5.9,2.7-5.4,6.6.5,4.1,3.6,3.4,6.1,5.1,3.2,2.2.9,5.6,1.7,9.3,1.2,6.1,11.1,4.6,10.7-2,0-.1,0,.1,0,0,0-1.9-1.2-3.5-2.9-4.2,0,0-2.8-1.4-3.2-1.6-2.3-1.4-2.2-4.7-2.2-7.5,0,0,0-1.3-.2-2.3"/>
    <path class="st0" d="M33,4.9c-.6-1.9-1.5-3.4-4.6-3.4-3,0-5.9,2.7-5.4,6.6.5,4.1,3.6,3.4,6.1,5.1,3.2,2.2.9,5.6,1.7,9.3,1.2,6.1,11.1,4.6,10.7-2,0-.1,0,.1,0,0,0-1.9-1.2-3.5-2.9-4.2,0,0-2.8-1.4-3.2-1.6-2.3-1.4-2.2-4.7-2.2-7.5,0,0,0-1.3-.2-2.3"/>
  </g>
</svg>