<?xml version="1.0" encoding="UTF-8"?>
<svg id="Layer_1" xmlns="http://www.w3.org/2000/svg" version="1.1" viewBox="0 0 591.3 185.8">
  <!-- Generator: Adobe Illustrator 29.1.0, SVG Export Plug-In . SVG Version: 2.1.0 Build 142)  -->
  <defs>
    <style>
      .st0 {
        fill: #fff;
      }
    </style>
  </defs>
  <g>
    <path class="st0" d="M41.9,3l52.9,88.8,1.7-1.3L148.8,3h37c.1,0,1.5,1.4,1.5,1.5v109.2h-27V34.9l-47.8,78.2c-1.9,1.7-30.1.4-35.1.2L29.4,34.9v78.8H3.4V3h38.5Z"/>
    <path class="st0" d="M224.7,3l33,80.8L288.2,3.1h30.7s30.1,81.7,30.1,81.7L382,3h29l-43.4,109.7c-2,2.5-27,.2-32,1.1l-32.4-79.9-29.5,78.8c-2.9,2.5-27.7.3-33.3.8L196.2,3h28.5Z"/>
    <path class="st0" d="M558.7,36.9c-7.2-2-14-5.2-21.3-7.1-22-5.6-52.5-8-74.7-3.6-41.1,8.3-37.6,62.3,9.8,66.4,29.3,2.6,59.5-2.2,86.3-13.8v26.9c-35.8,14.1-101.8,20.4-133.3-5-24.4-19.7-24.1-65.9.6-85.2,24.6-19.3,81.6-17.4,111-11.3,7.2,1.5,15.3,3.8,21.8,7.2v25.4Z"/>
    <path class="st0" d="M134.3,140.6c3.8.6,11.7-1.3,14.5,1l21.5,35.9c8.4-11.6,15.8-24.4,23-36.9h14v43.9h-9v-33.9l-21.1,33.8c-.6.4-9.9.4-11.4.2-2.6-.3-18.3-30.6-22.4-34v33.9h-9v-43.9Z"/>
    <path class="st0" d="M63.4,160.6c5.4,26.5-28.1,27.7-45.8,23.3-21.9-5.5-23.5-34.2-3.7-41.3,8.9-3.2,36.4-3,44.8,1.3,4.1,2.1,2.5,5.9,2.7,9.8-6.2-1.4-12.2-4.2-18.6-4.9-7.9-.8-29.8-1.8-32.1,8.6-3.2,14.3,5.5,19.4,18.2,20.3s23.6.3,24.5-9h-25v-8h35Z"/>
    <path class="st0" d="M123.2,143.7c.7.8-.3,7.1,0,8.9-8.4-2.3-18.7-5.1-27.5-5.1-3.6,0-20.9,2.4-14,8.1,6.2,5.2,33,0,41.9,7.1,3.8,3,4.3,10.6,2,14.8-5.8,10.8-36.2,7.9-46.6,5.8-7.9-1.6-9.8-1.4-8.8-10.7,11.9,2.9,24,6,36.4,5,4.6-.4,13.8-1.8,9.6-8.3-2.6-4-33.6-1.1-41.5-6.6-5.4-3.8-4.8-14.5.6-18.4,6.2-4.5,24.5-4.2,32.4-3.5,1.9.2,14.9,2.5,15.4,3.1Z"/>
    <path class="st0" d="M252.9,140.8c7.4,13.7,18.8,26.7,26,40.4.6,1.1,1.6,1.8,1.2,3.3-12.7,3-10.3-4.7-15.5-9-3.4-2.8-28.8,0-35-1.1-2.6,0-5.9,9.4-6.6,9.9-1.5,1-8.4-.3-10.8.2l27.5-42.9c2.5-2.1,9.8-.8,13.3-.8ZM234.2,166.6h24l-11.5-19c-2-.4-1.2.6-1.7,1.3-3.8,5.7-7.3,11.8-10.8,17.7Z"/>
  </g>
  <g>
    <path class="st0" d="M578.9.9h-2.5v-.9h6v.9h-2.5v7.2h-1.1V.9Z"/>
    <path class="st0" d="M590.1,4.5c0-1.1-.1-2.5-.1-3.5h0c-.3.9-.6,2-1,3.1l-1.4,3.9h-.8l-1.3-3.8c-.4-1.1-.7-2.2-.9-3.1h0c0,1,0,2.4-.2,3.6l-.2,3.5h-1l.6-8.1h1.3l1.4,3.9c.3,1,.6,1.9.8,2.7h0c.2-.8.5-1.7.9-2.7l1.4-3.9h1.3l.5,8.1h-1l-.2-3.5Z"/>
  </g>
</svg>