<svg xmlns="http://www.w3.org/2000/svg" xmlns:xlink="http://www.w3.org/1999/xlink" width="2248.125" height="1076.873" viewBox="0 0 2248.125 1076.873"><defs><linearGradient id="a" x1="0.5" x2="0.5" y2="1" gradientUnits="objectBoundingBox"><stop offset="0" stop-color="#ed2126"/><stop offset="1" stop-color="#ed204c"/></linearGradient><clipPath id="z"><rect width="2157.587" height="748.568" fill="url(#a)"/></clipPath><clipPath id="ac"><rect width="2005.516" height="680.589" fill="url(#a)"/></clipPath><clipPath id="ae"><rect width="2007.201" height="673.083" fill="url(#a)"/></clipPath><clipPath id="ag"><rect width="2008.885" height="665.576" fill="url(#a)"/></clipPath><clipPath id="ai"><rect width="2010.565" height="658.072" fill="url(#a)"/></clipPath><clipPath id="ak"><rect width="2012.243" height="650.567" fill="url(#a)"/></clipPath><clipPath id="am"><rect width="2013.921" height="643.066" fill="url(#a)"/></clipPath><clipPath id="ao"><rect width="2015.594" height="635.564" fill="url(#a)"/></clipPath><clipPath id="aq"><rect width="2017.265" height="628.065" fill="url(#a)"/></clipPath><clipPath id="as"><rect width="2018.932" height="620.563" fill="url(#a)"/></clipPath><clipPath id="au"><rect width="2020.591" height="613.062" fill="url(#a)"/></clipPath><clipPath id="aw"><rect width="2022.25" height="605.559" fill="url(#a)"/></clipPath><clipPath id="ay"><rect width="2023.908" height="598.052" fill="url(#a)"/></clipPath><clipPath id="ba"><rect width="2025.559" height="590.54" fill="url(#a)"/></clipPath><clipPath id="bc"><rect width="2027.213" height="597.369" fill="url(#a)"/></clipPath><clipPath id="be"><rect width="2028.867" height="608.486" fill="url(#a)"/></clipPath><clipPath id="bg"><rect width="2030.543" height="619.661" fill="url(#a)"/></clipPath><clipPath id="bi"><rect width="2032.275" height="630.883" fill="url(#a)"/></clipPath><clipPath id="bk"><rect width="2034.002" height="642.157" fill="url(#a)"/></clipPath><clipPath id="bm"><rect width="2035.729" height="653.422" fill="url(#a)"/></clipPath><clipPath id="bo"><rect width="2037.45" height="664.758" fill="url(#a)"/></clipPath><clipPath id="bq"><rect width="2039.168" height="676.035" fill="url(#a)"/></clipPath><clipPath id="bs"><rect width="2040.883" height="687.428" fill="url(#a)"/></clipPath></defs><g transform="translate(117.102) rotate(9)"><g clip-path="url(#z)"><g clip-path="url(#z)"><g opacity="0.79"><g clip-path="url(#z)"><g clip-path="url(#ac)"><path d="M2004.751,0l.764.252C1986.226,59.016,1950.44,112.7,1902.028,155.5s-106.079,71.732-166.765,83.671c-78.948,15.531-160.716,3.869-239.793-7.408-16.36-2.333-33.277-4.746-49.854-6.869-107.44-13.764-193.595-13.535-271.18.718-97.43,17.9-180.549,58.922-240.371,118.621-20.186,20.145-38.4,43.107-56.006,65.313-30.275,38.175-61.58,77.651-103.569,103.382-55.349,33.918-128.006,44.054-222.121,30.982-27.007-3.751-54.292-8.973-80.679-14.023-47.32-9.057-96.251-18.422-145.14-19.581-48.352-1.147-87.833,6.177-120.7,22.392-33.409,16.481-61.507,43.2-88.679,69.046C82.521,634.7,46.692,668.773.2,680.589l-.2-.78c46.29-11.764,82.041-45.766,116.617-78.648,27.216-25.884,55.359-52.648,88.877-69.184,32.988-16.272,72.591-23.625,121.075-22.475,48.956,1.16,97.921,10.532,145.273,19.595,26.377,5.048,53.652,10.269,80.638,14.017,93.924,13.045,166.408,2.946,221.591-30.872,41.867-25.656,73.127-65.074,103.358-103.2,17.625-22.224,35.85-45.205,56.069-65.383,59.937-59.814,143.2-100.91,240.793-118.843,1.412-.26,2.84-.516,4.259-.767,76.552-13.509,161.6-13.483,267.168.042,16.583,2.124,33.5,4.537,49.865,6.87,79.011,11.269,160.708,22.924,239.524,7.415C1859.4,213.929,1965.243,120.359,2004.751,0" fill="url(#a)"/></g><g transform="translate(5.561 10.745)"><g clip-path="url(#ae)"><path d="M2024.949,35.753l.752.286C2004.8,91.014,1968.073,141,1919.489,180.588c-48.8,39.765-106.367,66.389-166.48,77l-.244.043a430.392,430.392,0,0,1-69.418,6.206c-52.9.7-107.128-6.674-159.573-13.807-19.538-2.657-39.741-5.4-59.506-7.681-25.1-2.884-48.239-4.851-70.731-6.015-72.111-3.757-136.6.643-197.144,13.468-95.843,20.231-177.924,62.116-237.371,121.123-4.212,4.18-8.573,8.708-12.963,13.461-14.164,15.336-27.65,31.91-40.692,47.938-17.866,21.956-36.34,44.66-56.624,64.217-16.81,16.214-33.356,28.9-50.582,38.8a234.348,234.348,0,0,1-59.277,23.605c-45.367,11.481-98.309,12.671-161.863,3.646-23.614-3.353-47.394-7.779-67.83-11.665l-10.257-1.956C452.781,540.15,405.056,531.034,357.551,530q-2.654-.058-5.308-.082c-47.995-.441-87.044,7.489-119.374,24.244-32.8,17-60.513,43.7-87.314,69.52-5.016,4.832-10.2,9.83-15.336,14.678-30.281,28.6-66.369,60-111.536,70.474l-.182-.784c44.971-10.429,80.961-41.742,111.165-70.275,5.13-4.846,10.316-9.842,15.33-14.673,26.843-25.861,54.6-52.6,87.5-69.655,32.449-16.819,71.619-24.777,119.752-24.335q2.66.026,5.318.083c47.573,1.035,95.331,10.158,141.517,18.981l10.257,1.956c20.427,3.884,44.195,8.308,67.793,11.658,63.447,9.01,116.283,7.823,161.551-3.629a233.549,233.549,0,0,0,59.075-23.523c17.169-9.861,33.663-22.513,50.425-38.68,20.25-19.524,38.708-42.209,56.558-64.145,13.05-16.038,26.544-32.622,40.726-47.977,4.4-4.761,8.766-9.3,12.986-13.486,59.558-59.116,141.778-101.074,237.771-121.339,60.616-12.834,125.17-17.244,197.353-13.483,22.508,1.165,45.661,3.133,70.78,6.02,19.775,2.276,39.982,5.024,59.523,7.682,52.417,7.129,106.618,14.5,159.454,13.8a429.633,429.633,0,0,0,69.29-6.194l.245-.043c122.461-21.608,229.231-108.339,272.078-221.038" transform="translate(-18.501 -35.752)" fill="url(#a)"/></g></g><g transform="translate(11.121 21.49)"><g clip-path="url(#ag)"><path d="M2045.148,71.5l.737.324c-22.531,51.172-60.2,97.456-108.936,133.848a375.965,375.965,0,0,1-166.682,70.406,451.541,451.541,0,0,1-69.087,5.045c-49.377.052-100.074-6.563-149.1-12.96-22.72-2.964-46.213-6.029-69.158-8.37-24.937-2.533-47.945-4.076-70.341-4.718-69.386-2.037-132.918,4.148-194.23,18.9C1124.08,296.552,1043.036,339.3,983.976,397.6c-4.216,4.165-8.574,8.656-12.951,13.35-13.256,14.213-25.991,29.478-38.305,44.241-18.872,22.623-38.385,46.016-59.913,65.715-16.837,15.42-33.512,27.467-50.976,36.831a237.559,237.559,0,0,1-59.173,21.768c-45.175,10.344-97.831,10.919-160.986,1.752-23.332-3.387-47.081-7.814-67.508-11.7l-8.172-1.557c-46.653-8.9-94.893-18.1-142.784-18.474q-2.637-.021-5.273-.006c-47.547.261-86.16,8.8-118.049,26.1-32.394,17.574-59.86,44.406-86.422,70.354-6.35,6.2-12.917,12.619-19.45,18.809C120.436,696.6,83.042,727.37,37.169,737.077L37,736.29c45.678-9.666,82.967-40.359,116.46-72.088,6.527-6.185,13.093-12.6,19.441-18.8,26.6-25.987,54.107-52.859,86.6-70.487,32.008-17.362,70.746-25.931,118.428-26.194q2.642-.015,5.284.006c47.964.375,96.241,9.584,142.928,18.488l8.172,1.557c20.419,3.882,44.157,8.307,67.474,11.691,63.053,9.152,115.611,8.585,160.689-1.74a236.7,236.7,0,0,0,58.973-21.693c17.4-9.331,34.025-21.341,50.813-36.715,21.488-19.662,40.983-43.035,59.839-65.637,12.321-14.772,25.062-30.045,38.334-44.275,4.385-4.7,8.75-9.2,12.975-13.373,59.164-58.407,140.339-101.229,234.75-123.836,61.379-14.776,124.982-20.966,194.441-18.925,22.415.643,45.443,2.187,70.4,4.722,22.957,2.343,46.456,5.409,69.181,8.374,49,6.394,99.673,13.006,149,12.954a450.676,450.676,0,0,0,68.965-5.036c120.764-18.664,228.716-98.648,275-203.783" transform="translate(-37.001 -71.501)" fill="url(#a)"/></g></g><g transform="translate(16.681 32.232)"><g clip-path="url(#ai)"><path d="M2065.349,107.243l.716.365c-49.879,97.688-159.123,171.037-278.3,186.919a476.161,476.161,0,0,1-68.757,3.883c-45.872-.517-93.034-6.463-138.645-12.213-25.9-3.266-52.686-6.643-78.8-8.961-24.8-2.186-47.681-3.3-69.951-3.421-66.7-.418-129.278,7.545-191.315,24.338-92.715,24.93-172.723,68.544-231.372,126.129-4.2,4.122-8.553,8.576-12.943,13.238-12.35,13.111-24.311,27.111-35.878,40.65-19.885,23.273-40.447,47.339-63.241,67.107-16.863,14.641-33.666,26.044-51.37,34.861-17.793,8.885-37.113,15.4-59.067,19.93-44.952,9.215-97.345,9.17-160.108-.14-23.019-3.414-45.812-7.667-67.185-11.731l-6.3-1.2c-47.085-8.97-95.772-18.245-143.977-17.941q-2.619.016-5.238.07c-47.01.958-85.193,10.1-116.724,27.95-32.135,18.19-59.453,45.258-85.872,71.435-7.568,7.5-15.395,15.253-23.224,22.691-34.676,32.939-73.475,64.715-122.155,74.108l-.153-.79c48.478-9.354,87.166-41.046,121.753-73.9,7.824-7.432,15.647-15.183,23.213-22.68,26.456-26.214,53.813-53.319,86.041-71.564,31.649-17.917,69.955-27.093,117.1-28.055q2.623-.052,5.249-.07c48.284-.3,97.011,8.979,144.133,17.955l6.3,1.2c21.366,4.061,44.15,8.313,67.154,11.725,62.665,9.3,114.954,9.349,159.828.148,21.883-4.511,41.14-11.009,58.869-19.862,17.643-8.787,34.392-20.154,51.2-34.749,22.749-19.729,43.291-43.771,63.156-67.023,11.574-13.546,23.542-27.554,35.9-40.678,4.4-4.67,8.76-9.131,12.964-13.26,58.75-57.681,138.879-101.366,231.727-126.331,62.105-16.815,124.756-24.784,191.529-24.367,22.292.116,45.2,1.237,70.018,3.424,26.125,2.319,52.916,5.7,78.825,8.964,45.588,5.747,92.727,11.691,138.553,12.206a475.083,475.083,0,0,0,68.642-3.876c118.922-15.821,227.923-89.028,277.687-186.486" transform="translate(-55.5 -107.242)" fill="url(#a)"/></g></g><g transform="translate(22.241 42.974)"><g clip-path="url(#ak)"><path d="M2085.55,142.977l.691.411c-25.856,43.526-65.408,82.406-114.38,112.441a406.95,406.95,0,0,1-166.594,57.14,504.4,504.4,0,0,1-68.427,2.722c-42.382-1-86.011-6.36-128.2-11.542-29.085-3.572-59.16-7.265-88.418-9.472-24.658-1.841-47.412-2.536-69.562-2.125-64.058,1.1-125.684,10.841-188.4,29.773-91.185,27.307-170.155,71.788-228.374,128.632-4.2,4.1-8.547,8.514-12.935,13.126-11.446,12.031-22.618,24.809-33.422,37.166-20.9,23.908-42.517,48.629-66.6,68.392a236.9,236.9,0,0,1-51.764,32.893c-17.691,8.169-36.977,14.087-58.96,18.092-44.776,8.09-96.857,7.418-159.231-2.034-22.673-3.435-45.464-7.694-66.862-11.763l-4.543-.864C532.092,596.928,483,587.584,434.52,588.582q-2.6.053-5.2.146c-45.765,1.622-84.59,11.652-115.4,29.8-31.98,18.841-59.229,46.22-85.581,72.7-8.7,8.739-17.689,17.774-26.738,26.392-34.059,32.433-75.828,66.813-127.365,75.906l-.1.017-.14-.793.1-.017c51.33-9.057,92.975-43.344,126.95-75.7,9.041-8.611,18.03-17.643,26.723-26.377,26.387-26.515,53.673-53.932,85.741-72.825,30.929-18.22,69.884-28.284,115.78-29.914q2.6-.092,5.214-.146c48.561-1,97.7,8.353,145.215,17.4l4.542.865c21.393,4.067,44.174,8.325,66.833,11.758,62.284,9.438,114.293,10.09,158.967,2.037,21.915-3.992,41.138-9.89,58.767-18.031a236.1,236.1,0,0,0,51.59-32.784c24.03-19.721,45.621-44.416,66.5-68.3,10.811-12.364,21.988-25.148,33.446-37.192,4.394-4.618,8.752-9.041,12.954-13.146,58.312-56.936,137.4-101.483,228.7-128.827,62.787-18.952,124.484-28.7,188.617-29.808,22.174-.41,44.953.285,69.637,2.127,29.277,2.208,59.362,5.9,88.456,9.476,42.173,5.18,85.781,10.535,128.123,11.536a503.6,503.6,0,0,0,68.319-2.716c117.008-13.053,227.065-79.458,280.371-169.193" transform="translate(-73.997 -142.978)" fill="url(#a)"/></g></g><g transform="translate(27.8 53.713)"><g clip-path="url(#am)"><path d="M2105.753,178.709l.661.46c-27.561,39.676-68.053,74.856-117.1,101.733a429.005,429.005,0,0,1-166.548,50.508,537.976,537.976,0,0,1-68.1,1.56c-38.906-1.408-79-6.247-117.774-10.928-32.268-3.895-65.636-7.923-98.027-9.929a672.78,672.78,0,0,0-69.172-.828c-61.473,2.526-122.146,14.042-185.485,35.208C1194.53,376.2,1116.6,421.548,1058.837,477.631c-4.186,4.065-8.535,8.444-12.925,13.013-10.548,10.976-20.917,22.575-30.944,33.793C993.044,548.961,970.376,574.321,944.99,594a230.447,230.447,0,0,1-52.159,30.924c-17.578,7.458-36.821,12.77-58.855,16.255-44.562,6.954-96.36,5.67-158.354-3.925-22.329-3.456-44.216-7.552-66.538-11.8l-2.945-.56c-47.821-9.1-97.27-18.505-145.963-16.8q-2.586.091-5.167.222c-45.1,2.291-83.482,12.941-114.076,31.655-31.9,19.514-59.141,47.26-85.483,74.092-9.757,9.939-19.846,20.216-30.058,29.964-32.616,31.13-76.78,67.88-130.318,77.326q-1.224.216-2.454.413l-.127-.795c.813-.13,1.631-.268,2.441-.411,53.329-9.41,97.368-46.064,129.9-77.116,10.2-9.74,20.288-20.012,30.041-29.946,26.376-26.867,53.65-54.649,85.637-74.214,30.71-18.785,69.216-29.476,114.455-31.774q2.588-.131,5.179-.222c48.783-1.711,98.278,7.7,146.142,16.81l2.945.561c22.317,4.243,44.2,8.337,66.513,11.791,61.909,9.582,113.627,10.867,158.106,3.925,21.954-3.471,41.148-8.768,58.665-16.2A229.657,229.657,0,0,0,944.5,593.367c25.328-19.637,47.971-44.969,69.871-69.466,10.032-11.223,20.406-22.828,30.964-33.815,4.4-4.576,8.752-8.961,12.944-13.032,57.847-56.168,135.886-101.579,225.682-131.324,63.411-21.191,124.156-32.72,185.7-35.249a673.365,673.365,0,0,1,69.254.829c32.416,2.007,65.795,6.036,98.075,9.933,38.758,4.679,78.834,9.516,117.707,10.923a537.278,537.278,0,0,0,67.995-1.557c115.016-10.326,226.128-69.942,283.059-151.9" transform="translate(-92.493 -178.709)" fill="url(#a)"/></g></g><g transform="translate(33.358 64.452)"><g clip-path="url(#ao)"><path d="M1426.114,336.8a575.268,575.268,0,0,1,62.567-7.584,607.048,607.048,0,0,1,68.874-.47c35.537,1.718,72.208,6.11,107.672,10.359,35.344,4.233,71.892,8.612,107.311,10.341a577.161,577.161,0,0,0,67.671-.4c114.675-7.767,224.168-59.343,285.751-134.608l.623.51c-29.3,35.811-70.733,67.286-119.817,91.025a456.718,456.718,0,0,1-166.5,43.876,577.566,577.566,0,0,1-67.765.4c-35.448-1.731-72.01-6.11-107.368-10.346-35.449-4.246-72.106-8.637-107.614-10.354a606.135,606.135,0,0,0-68.782.469c-58.955,3.85-118.674,17.146-182.57,40.643-89.474,32.6-164.292,77.56-222.377,133.642-4.222,4.077-8.447,8.3-12.915,12.9-9.66,9.95-19.215,20.416-28.457,30.536-22.94,25.123-46.661,51.1-73.367,70.624A224.3,224.3,0,0,1,916.5,647.315c-17.449,6.753-36.667,11.468-58.747,14.417-44.346,5.825-95.857,3.922-157.477-5.818-21.877-3.456-43.8-7.568-66.217-11.829l-1.5-.286c-48.115-9.149-97.867-18.609-146.724-16.18q-2.57.128-5.132.3c-44.385,2.945-82.319,14.22-112.751,33.509-31.879,20.206-59.153,48.354-85.53,75.576-10.765,11.111-21.9,22.6-33.234,33.445C215.033,803.109,168.473,841.681,111.1,850l-.116-.8c57.2-8.295,103.577-46.759,137.64-79.34,11.325-10.833,22.452-22.318,33.213-33.423,26.408-27.255,53.717-55.438,85.676-75.7,30.546-19.363,68.61-30.68,113.129-33.632q2.571-.171,5.145-.3c48.953-2.434,98.754,7.036,146.915,16.194l1.5.286c22.406,4.26,44.328,8.37,66.192,11.825,61.543,9.728,112.979,11.629,157.246,5.815,22.014-2.941,41.172-7.641,58.563-14.37a223.488,223.488,0,0,0,52.367-28.853c26.642-19.477,50.335-45.425,73.248-70.518,9.245-10.125,18.806-20.594,28.474-30.554,4.474-4.61,8.705-8.834,12.934-12.918,58.166-56.161,133.079-101.183,222.659-133.818,41.522-15.27,81.289-26.236,120.227-33.107" transform="translate(-110.986 -214.437)" fill="url(#a)"/></g></g><g transform="translate(38.916 75.188)"><g clip-path="url(#aq)"><path d="M1463.228,353.865c14.907-2.631,29.678-4.593,44.469-5.923a551.476,551.476,0,0,1,68.493-1.769c38.644,1.337,78.61,6.135,117.259,10.776,31.93,3.833,64.946,7.8,96.925,9.766a624.445,624.445,0,0,0,67.347.763c112.438-5.12,222.963-50.071,288.446-117.318l.577.562c-65.621,67.386-176.354,112.435-288.986,117.559a624.946,624.946,0,0,1-67.434-.763c-32-1.97-65.03-5.936-96.971-9.77-38.633-4.639-78.582-9.436-117.19-10.771a550.583,550.583,0,0,0-68.393,1.765c-57.295,5.158-114.381,19.8-179.656,46.079-88.03,35.1-161.839,80.906-219.377,136.147-4.175,4.007-8.517,8.31-12.907,12.787-8.776,8.949-17.509,18.32-25.955,27.383-23.955,25.7-48.727,52.285-76.77,71.577A218.432,218.432,0,0,1,940.158,669.7c-17.307,6.053-36.488,10.167-58.64,12.579-44.118,4.7-95.341,2.175-156.6-7.71-21.413-3.454-42.511-7.416-65.894-11.862l-.133-.025c-48.384-9.2-98.414-18.713-147.407-15.549q-2.551.166-5.1.374c-43.609,3.579-81.1,15.479-111.428,35.363-31.887,20.908-59.229,49.481-85.671,77.113-11.741,12.269-23.881,24.955-36.314,36.873-23.658,22.674-45.327,39.9-66.241,52.671-26.062,15.912-51.286,25.3-77.147,28.7l-.1-.8c59.844-7.871,107.827-47.506,142.936-81.154,12.42-11.905,24.554-24.585,36.289-36.848,26.473-27.664,53.847-56.27,85.812-77.229,30.437-19.959,68.053-31.9,111.8-35.492q2.551-.209,5.111-.374c49.094-3.171,99.176,6.352,147.609,15.561l.134.026c23.377,4.445,44.469,8.406,65.872,11.858,61.187,9.874,112.341,12.394,156.385,7.7,22.09-2.4,41.213-6.506,58.462-12.539a217.616,217.616,0,0,0,52.755-26.889c27.972-19.242,52.713-45.789,76.639-71.463,8.449-9.067,17.186-18.441,25.97-27.4,4.4-4.483,8.744-8.791,12.923-12.805,57.614-55.312,131.51-101.174,219.636-136.313,48.5-19.527,92.5-32.637,135.412-40.209" transform="translate(-129.48 -250.16)" fill="url(#a)"/></g></g><g transform="translate(44.474 85.927)"><g clip-path="url(#as)"><path d="M1497.655,370.9c9.7-1.711,19.361-3.115,29.059-4.231a504.114,504.114,0,0,1,68.111-3.066c41.747.864,85.016,6.124,126.86,11.211,28.506,3.466,57.984,7.049,86.526,9.175,24.109,1.789,46.033,2.418,67.025,1.922,110.044-2.545,221.606-40.873,291.145-100.027l.521.612c-32.93,28.013-76.238,52.082-125.243,69.605a537.016,537.016,0,0,1-166.406,30.613c-21.018.5-42.968-.132-67.1-1.923-28.561-2.127-58.048-5.712-86.563-9.178-41.824-5.084-85.072-10.342-126.779-11.2a503.272,503.272,0,0,0-68,3.06c-55.649,6.4-110.16,22.291-176.741,51.514-86.644,37.655-159.444,84.3-216.379,138.651-4.158,3.97-8.5,8.234-12.9,12.674-7.907,7.979-15.816,16.3-23.463,24.349-24.963,26.268-50.776,53.431-80.166,72.412a212.852,212.852,0,0,1-53.341,25.016c-17.146,5.36-36.292,8.874-58.535,10.742-43.872,3.572-94.809.431-155.721-9.6-22.494-3.7-45.379-8.056-65.571-11.9-48.069-9.141-97.773-18.593-146.858-14.684q-2.535.2-5.062.45c-42.8,4.2-79.84,16.719-110.105,37.217-31.922,21.62-59.359,50.631-85.892,78.687-12.687,13.415-25.806,27.287-39.315,40.261-33.43,32.1-85.22,75.647-148.7,83.187l-.095-.8c63.251-7.519,114.888-50.949,148.232-82.968,13.5-12.961,26.608-26.825,39.288-40.234,26.563-28.087,54.03-57.132,86.026-78.8,30.377-20.572,67.549-33.135,110.478-37.351q2.533-.247,5.077-.451c49.192-3.917,98.951,5.545,147.072,14.7,20.187,3.838,43.067,8.189,65.55,11.892,60.848,10.021,111.72,13.16,155.525,9.593,22.183-1.863,41.273-5.365,58.361-10.708a212.082,212.082,0,0,0,53.144-24.924c29.31-18.93,55.089-46.057,80.019-72.291,7.651-8.051,15.562-16.375,23.475-24.361,4.405-4.445,8.75-8.715,12.913-12.69,57-54.414,129.882-101.115,216.612-138.807,55.057-24.165,101.877-39.222,147.911-47.344" transform="translate(-147.971 -285.888)" fill="url(#a)"/></g></g><g transform="translate(50.031 96.666)"><g clip-path="url(#au)"><path d="M1531.012,387.74q7.295-1.287,14.716-2.334a463.9,463.9,0,0,1,67.73-4.364c44.839.3,91.411,6.089,136.451,11.688,25.083,3.119,51.021,6.344,76.136,8.541,24.034,2.095,45.853,3.1,66.7,3.081,109.081-.058,218.931-30.986,293.849-82.735l.458.662c-34.851,24.073-79.1,44.439-127.949,58.895a595.284,595.284,0,0,1-166.357,23.983c-20.873.023-42.715-.986-66.772-3.084-25.13-2.2-51.075-5.423-76.166-8.542-45.016-5.6-91.565-11.384-136.356-11.683a463.111,463.111,0,0,0-67.612,4.357c-68.325,9.6-128.783,35.478-173.826,56.947-85.335,40.278-157.126,87.771-213.381,141.159-4.145,3.934-8.481,8.161-12.888,12.563-7.046,7.036-14.125,14.348-20.971,21.419-25.964,26.816-52.811,54.545-83.561,73.142a207.692,207.692,0,0,1-53.736,23.047c-16.966,4.678-36.079,7.589-58.426,8.9-43.611,2.45-94.26-1.31-154.845-11.493-21.655-3.639-43.624-7.817-64.871-11.857l-.376-.072c-45.491-8.65-97.05-18.453-146.175-13.793q-2.518.24-5.027.526c-41.938,4.8-78.533,17.938-108.782,39.07-31.969,22.334-59.518,51.791-86.159,80.278-13.616,14.558-27.694,29.613-42.269,43.635-54.693,52.606-103.632,79.62-154,85l-.086-.8c50.182-5.364,98.974-32.305,153.53-84.781,14.56-14.007,28.631-29.054,42.239-43.6,26.67-28.518,54.247-58.006,86.286-80.388,30.36-21.21,67.08-34.4,109.151-39.21q2.517-.288,5.043-.528c49.24-4.671,100.858,5.144,146.4,13.8l.377.072c21.241,4.039,43.208,8.217,64.854,11.853,60.525,10.173,111.116,13.929,154.666,11.483,22.287-1.312,41.344-4.214,58.259-8.877a206.892,206.892,0,0,0,53.531-22.959c30.661-18.544,57.471-46.234,83.4-73.013,6.848-7.073,13.929-14.387,20.981-21.429,4.411-4.406,8.753-8.638,12.9-12.577,56.317-53.447,128.179-100.988,213.59-141.3,41.832-19.939,96.96-43.676,159.342-54.683" transform="translate(-166.461 -321.617)" fill="url(#a)"/></g></g><g transform="translate(55.589 107.405)"><g clip-path="url(#aw)"><path d="M1561.044,404.776c1.232-.217,2.46-.429,3.7-.634a429.455,429.455,0,0,1,67.35-5.663c47.927-.358,97.808,6.045,146.049,12.236,21.656,2.78,44.049,5.654,65.74,7.836,23.967,2.4,45.679,3.792,66.378,4.241,106.169,2.367,217.031-22.1,296.558-65.441l.385.707c-79.644,43.408-190.658,67.909-296.96,65.539-20.72-.451-42.453-1.839-66.441-4.246-21.7-2.183-44.1-5.057-65.761-7.838-48.214-6.188-98.069-12.587-145.94-12.229a428.543,428.543,0,0,0-67.224,5.652c-65.085,10.808-122.91,37.615-170.91,62.383-85.318,43.6-154.135,90.593-210.383,143.664-4.148,3.914-8.481,8.1-12.879,12.449-6.2,6.126-12.45,12.468-18.5,18.6-26.952,27.346-54.821,55.622-86.938,73.759a202.826,202.826,0,0,1-54.13,21.077c-17,4.059-35.532,6.3-58.319,7.067-43.927,1.349-92.85-2.9-153.967-13.384-20.634-3.538-41.577-7.521-61.829-11.372l-3.094-.589c-45.165-8.589-96.356-18.324-145.492-12.9q-2.5.276-4.992.6c-41.029,5.37-77.186,19.133-107.459,40.925-32.02,23.047-59.69,52.947-86.449,81.863-14.534,15.705-29.563,31.945-45.2,47.014-25.594,24.659-49.625,43.441-73.468,57.422-28.641,16.793-57.521,26.682-85.841,29.395l-.076-.8c51.519-4.928,103.469-33.258,158.828-86.595,15.621-15.053,30.642-31.285,45.168-46.981,26.787-28.945,54.486-58.875,86.571-81.97,30.382-21.87,66.663-35.684,107.825-41.069q2.5-.325,5.008-.6c49.256-5.435,100.51,4.312,145.73,12.911l3.1.588c20.249,3.852,41.188,7.834,61.814,11.37,61.062,10.471,109.934,14.721,153.8,13.373,22.733-.761,41.214-3,58.158-7.046a202.051,202.051,0,0,0,53.921-20.995c32.019-18.082,59.849-46.317,86.761-73.622,6.048-6.136,12.3-12.48,18.5-18.61,4.4-4.352,8.739-8.545,12.892-12.463,56.3-53.123,125.182-100.159,210.567-143.794,47.142-24.325,103.779-50.592,167.447-61.827" transform="translate(-184.951 -357.351)" fill="url(#a)"/></g></g><g transform="translate(61.145 118.15)"><g clip-path="url(#ay)"><path d="M1589.87,421.754a405.5,405.5,0,0,1,60.852-5.825c51.025-1.111,104.234,6,155.693,12.885,18.211,2.435,37.041,4.952,55.3,7.031,23.9,2.714,45.51,4.482,66.056,5.4,104.379,4.731,213.458-12.817,299.268-48.144l.306.744c-85.915,35.369-195.119,52.94-299.611,48.2-20.564-.921-42.189-2.69-66.11-5.406-18.264-2.079-37.1-4.6-55.313-7.033-51.427-6.876-104.606-13.986-155.568-12.877a398.122,398.122,0,0,0-66.833,6.947c-62.166,11.991-117.481,39.681-168,67.816-84.25,46.492-152.085,94.3-207.383,146.171-4.138,3.882-8.468,8.033-12.869,12.339-5.363,5.244-10.79,10.656-16.037,15.891-27.929,27.857-56.808,56.664-90.3,74.269a198.335,198.335,0,0,1-54.525,19.108c-16.767,3.386-35.272,5.05-58.211,5.231-43.6.221-92.248-4.633-153.088-15.276-19.48-3.407-39.26-7.171-58.389-10.812l-6.211-1.182c-44.858-8.53-95.7-18.2-144.808-12.011q-2.485.315-4.957.678c-39.51,5.823-76.229,20.618-106.136,42.777-32.065,23.756-59.864,54.093-86.749,83.432-15.448,16.858-31.421,34.291-48.122,50.41-57.056,55.057-110.893,84.046-164.616,88.633l-.069-.8c53.526-4.566,107.209-33.487,164.126-88.41,16.683-16.1,32.648-33.525,48.089-50.374,26.909-29.367,54.735-59.734,86.862-83.535,30.015-22.237,66.836-37.078,106.5-42.927q2.481-.366,4.974-.68c49.234-6.2,100.144,3.477,145.059,12.018l6.211,1.182c19.127,3.64,38.9,7.4,58.379,10.811C884.425,759.07,933.024,763.92,976.578,763.7c22.885-.181,41.33-1.837,58.058-5.215a197.533,197.533,0,0,0,54.309-19.03c33.385-17.548,62.221-46.311,90.107-74.126,5.249-5.236,10.677-10.65,16.043-15.9,4.405-4.309,8.74-8.464,12.881-12.349,55.348-51.914,123.235-99.764,207.544-146.288,50.572-28.168,105.957-55.891,168.234-67.9q3.035-.592,6.116-1.136" transform="translate(-203.436 -393.101)" fill="url(#a)"/></g></g><g transform="translate(66.701 128.898)"><g clip-path="url(#ba)"><path d="M1616.891,438.84a386.1,386.1,0,0,1,52.462-5.452c54.133-1.959,110.683,5.981,165.372,13.66,14.753,2.072,30.01,4.214,44.821,6.1,23.877,3.032,45.378,5.177,65.732,6.561,137.375,9.419,248.166-15.281,301.981-30.843l.223.772c-53.865,15.577-164.76,40.3-302.259,30.874-20.37-1.384-41.887-3.533-65.779-6.565-14.816-1.885-30.075-4.028-44.831-6.1-54.654-7.674-111.168-15.609-165.23-13.653a371.749,371.749,0,0,0-66.444,8.243c-62.554,13.744-115.852,43.723-165.083,73.25-83.416,49.59-150.269,98.224-204.384,148.678-4.171,3.889-8.378,7.889-12.86,12.226-4.543,4.394-9.152,8.917-13.608,13.291-28.888,28.352-58.76,57.67-93.634,74.668a194.1,194.1,0,0,1-54.919,17.136c-16.52,2.732-34.983,3.81-58.1,3.394-43.232-.9-91.6-6.352-152.211-17.167-18.105-3.229-36.5-6.734-54.284-10.124l-9.993-1.9c-42.355-8.054-95.068-18.078-144.124-11.119q-2.469.351-4.922.754C596.258,751.857,560,767.29,530,790.15c-32.1,24.454-60.025,55.215-87.033,84.963-16.365,18.025-33.286,36.664-51.06,53.843C333.279,985.613,277.7,1015.2,221.984,1019.4l-.061-.8c55.526-4.193,110.938-33.7,169.423-90.224,17.755-17.161,34.668-35.789,51.024-53.8,27.032-29.775,54.984-60.563,87.141-85.061C559.62,766.572,596,751.1,634.682,744.725q2.462-.4,4.939-.756c49.19-6.978,101.974,3.06,144.388,11.126L794,757c17.785,3.389,36.174,6.893,54.275,10.121,60.57,10.807,108.9,16.258,152.085,17.154,23.068.416,41.485-.659,57.958-3.383a193.025,193.025,0,0,0,54.7-17.066c34.755-16.941,64.58-46.213,93.423-74.519,4.458-4.375,9.068-8.9,13.612-13.3,4.486-4.341,8.7-8.343,12.871-12.236,54.158-50.494,121.057-99.161,204.521-148.781,49.286-29.561,102.65-59.574,165.322-73.346q6.938-1.54,14.125-2.808" transform="translate(-221.923 -428.864)" fill="url(#a)"/></g></g><g transform="translate(72.258 125.306)"><g clip-path="url(#bc)"><path d="M1643.262,422.476a368.087,368.087,0,0,1,44.722-5.008c57.262-2.906,117.17,5.992,175.106,14.6,11.28,1.676,22.943,3.408,34.288,5,23.887,3.355,45.283,5.88,65.41,7.722,123.747,11.387,234-1.076,304.695-13.538l.14.793c-70.746,12.47-181.073,24.943-304.909,13.547-20.138-1.842-41.547-4.369-65.448-7.726-11.348-1.6-23.013-3.33-34.293-5.005-57.9-8.6-117.767-17.493-174.947-14.589a348.905,348.905,0,0,0-66.054,9.537c-60.019,14.826-110.957,45.68-162.168,78.684-84.095,53.75-148.087,101.789-201.386,151.186-4.12,3.818-8.444,7.894-12.851,12.112q-5.6,5.359-11.2,10.786c-29.835,28.834-60.686,58.65-96.949,74.973a190.456,190.456,0,0,1-55.313,15.167c-16.46,2.12-34.347,2.6-58,1.557-42.787-2-90.873-8.057-151.332-19.057-16.48-3-33.227-6.2-49.423-9.288q-7.265-1.388-14.531-2.772c-42.087-8-94.465-17.964-143.442-10.229q-2.45.389-4.887.83a237.331,237.331,0,0,0-103.492,46.485c-32.116,25.14-60.165,56.306-87.292,86.447-17.288,19.209-35.165,39.072-54.022,57.323-60.2,58.261-117.534,88.439-175.228,92.264l-.053-.8c57.509-3.809,114.661-33.915,174.722-92.039,18.838-18.232,36.7-38.085,53.984-57.283,27.149-30.166,55.222-61.36,87.392-86.543a238.154,238.154,0,0,1,103.845-46.643q2.444-.447,4.9-.833c49.115-7.757,101.569,2.218,143.718,10.234q7.267,1.382,14.533,2.771c16.194,3.093,32.939,6.29,49.415,9.287,60.423,10.993,108.476,17.044,151.226,19.045,23.6,1.041,41.443.562,57.857-1.551a189.637,189.637,0,0,0,55.085-15.1c36.135-16.265,66.935-46.031,96.72-74.817q5.6-5.416,11.2-10.789c4.41-4.222,8.737-8.3,12.86-12.121,53.336-49.429,117.363-97.5,201.5-151.272,51.269-33.043,102.271-63.933,162.409-78.789q10.455-2.607,21.484-4.552" transform="translate(-240.41 -416.907)" fill="url(#a)"/></g></g><g transform="translate(77.814 117.426)"><g clip-path="url(#be)"><path d="M1669.024,396.083a351.225,351.225,0,0,1,37.592-4.508c60.423-3.957,123.718,6.052,184.93,15.731q11.895,1.88,23.667,3.713c23.953,3.691,45.243,6.6,65.086,8.883,92.778,10.734,193.332,11.969,307.408,3.771l.058.8c-114.127,8.2-214.73,6.965-307.558-3.775-19.853-2.286-41.154-5.194-65.117-8.887Q1903.321,410,1891.42,408.1c-61.168-9.673-124.419-19.675-184.751-15.724a328.91,328.91,0,0,0-65.664,10.833c-57.658,15.846-106.236,47.47-159.254,84.118-57.509,39.45-132.03,92.569-198.387,153.693-4.108,3.784-8.428,7.822-12.842,12q-4.412,4.176-8.829,8.391c-30.76,29.3-62.569,59.591-100.221,75.166-16.935,7.028-35.158,11.346-55.708,13.2-20.687,1.91-41.8.854-57.888-.28-42.221-3.083-90.028-9.739-150.454-20.947-14.374-2.665-28.987-5.465-43.118-8.172q-10.255-1.966-20.513-3.921c-51.367-9.768-97.563-17.213-142.757-9.338-1.618.272-3.24.584-4.852.906-36.541,7.271-71.871,23.986-102.169,48.338-32.106,25.806-60.268,57.353-87.5,87.861-18.226,20.417-37.071,41.529-57.034,60.875-27.865,27-55.825,48.451-83.1,63.755-32.578,18.277-65.362,28.478-97.431,30.323l-.046-.8c58.666-3.377,119.236-34.951,180.02-93.852,19.942-19.326,38.778-40.427,56.994-60.833,27.255-30.532,55.438-62.1,87.6-87.951,30.4-24.434,65.849-41.2,102.518-48.5,1.618-.322,3.254-.626,4.871-.909,45.328-7.9,91.6-.442,143.045,9.341q10.26,1.952,20.514,3.921c14.131,2.707,28.742,5.506,43.114,8.171,60.4,11.2,108.176,17.855,150.365,20.936,16.052,1.132,37.126,2.186,57.756.281,20.47-1.845,38.616-6.143,55.474-13.139,37.515-15.518,69.267-45.759,99.975-75q4.42-4.209,8.831-8.393c4.416-4.182,8.739-8.222,12.849-12.009,66.395-61.159,140.945-114.3,198.475-153.765,53.079-36.689,101.719-68.352,159.5-84.231q13.624-3.774,28.233-6.352" transform="translate(-258.897 -390.689)" fill="url(#a)"/></g></g><g transform="translate(83.37 109.488)"><g clip-path="url(#bg)"><path d="M1694.224,369.514q15.089-2.662,31.022-3.965c63.627-5.113,130.341,6.18,194.857,17.1q6.492,1.1,12.942,2.186c24.165,4.056,45.349,7.341,64.764,10.043,116.36,16.245,228.348,19.042,310.118,21.086l-.02.8c-81.79-2.044-193.8-4.843-310.209-21.094-19.422-2.7-40.613-5.988-64.786-10.047q-6.449-1.084-12.943-2.186c-64.467-10.913-131.13-22.2-194.657-17.093a310.652,310.652,0,0,0-65.274,12.128c-59.86,18.144-108.908,54.446-156.341,89.552-60.8,44.694-131.059,97.309-195.388,156.2-4.126,3.778-8.324,7.667-12.833,11.887q-3.241,3.035-6.489,6.089c-31.669,29.746-64.415,60.505-103.465,75.267-16.96,6.431-35.313,10.1-56.1,11.225-20.109,1.128-40.492-.436-57.78-2.115-42.018-4.179-88.148-11.223-149.576-22.838q-17.445-3.3-34.893-6.676-14.2-2.734-28.415-5.449c-51.059-9.71-96.989-17.058-142.073-8.448q-2.418.461-4.817.981c-35.483,7.689-70.355,25.045-100.85,50.195C578.948,760.8,550.69,792.7,523.363,823.544c-19.18,21.652-39.014,44.042-60.1,64.505-62.492,60.632-125.012,92.894-185.839,95.893l-.039-.8c60.624-2.989,122.969-35.174,185.319-95.667,21.067-20.442,40.89-42.82,60.061-64.461,27.347-30.871,55.626-62.794,87.742-89.281,30.592-25.231,65.584-42.645,101.19-50.36q2.409-.523,4.838-.986c45.243-8.657,91.232-1.278,142.373,8.449q14.215,2.7,28.417,5.449,17.45,3.359,34.891,6.677c61.4,11.61,107.513,18.65,149.507,22.827,17.256,1.676,37.6,3.237,57.656,2.113,20.706-1.118,38.979-4.773,55.86-11.174,38.9-14.706,71.588-45.409,103.2-75.1q3.25-3.052,6.491-6.089c4.511-4.223,8.71-8.114,12.839-11.893,64.359-58.92,134.635-111.549,195.454-156.256,47.487-35.147,96.591-71.491,156.583-89.675a291.722,291.722,0,0,1,34.421-8.195" transform="translate(-277.382 -364.281)" fill="url(#a)"/></g></g><g transform="translate(88.926 101.502)"><g clip-path="url(#bi)"><path d="M1718.9,342.8q12.216-2.155,24.974-3.386c66.894-6.381,137.066,6.4,204.928,18.753l2.072.378c25.036,4.553,45.513,8.113,64.44,11.2,85.589,14.014,168.24,22.815,241.162,30.578,25.179,2.681,48.961,5.213,71.664,7.824l-.092.8c-22.7-2.611-46.481-5.143-71.657-7.824-72.932-7.764-155.595-16.566-241.206-30.584-18.932-3.092-39.413-6.653-64.455-11.207l-2.072-.377c-67.808-12.347-137.924-25.114-204.707-18.744a294.54,294.54,0,0,0-64.886,13.421c-57.557,19.1-105.164,56.785-151.2,93.227l-9.294,7.321c-61.614,48.458-125.325,98.566-185.317,153.149-4.105,3.735-8.419,7.7-12.823,11.775l-4.193,3.884c-32.554,30.18-66.218,61.388-106.666,75.269-16.99,5.848-35.47,8.876-56.5,9.255-19.547.388-39.27-1.67-57.671-3.952-51.967-6.553-104.33-16.176-148.7-24.726q-11.651-2.245-23.3-4.511c-13-2.522-26.446-5.131-39.681-7.648-50.762-9.653-96.433-16.877-141.389-7.558q-2.4.5-4.782,1.057c-34.885,8.185-68.371,25.7-99.529,52.049-32,27.061-60.329,59.278-87.73,90.434-20.157,22.92-41,46.62-63.244,68.229-64.066,62.231-128.374,95.1-191.145,97.708l-.033-.8c62.572-2.594,126.7-35.392,190.617-97.481,22.221-21.587,43.054-45.276,63.2-68.184,27.419-31.178,55.773-63.417,87.814-90.517,31.255-26.435,64.855-44,99.864-52.217q2.39-.562,4.8-1.062c45.087-9.35,90.855-2.114,141.7,7.556,13.237,2.517,26.682,5.125,39.685,7.648q11.654,2.261,23.3,4.511c44.356,8.547,96.7,18.169,148.646,24.719,18.371,2.278,38.059,4.332,57.557,3.945,20.939-.377,39.339-3.391,56.25-9.211,40.288-13.826,73.887-44.975,106.38-75.1l4.193-3.885c4.405-4.08,8.722-8.043,12.829-11.78,60.013-54.6,123.736-104.719,185.361-153.185l9.292-7.32c46.094-36.486,93.758-74.212,151.449-93.359A280.738,280.738,0,0,1,1718.9,342.8" transform="translate(-295.869 -337.713)" fill="url(#a)"/></g></g><g transform="translate(94.482 93.465)"><g clip-path="url(#bk)"><path d="M1743.124,315.929q9.527-1.681,19.382-2.78c64.725-7.156,131.679,4.359,206.2,18.974,19.378,3.8,41.911,8.2,64.118,12.366,53.822,10.124,106.141,18.942,156.738,27.47,56.525,9.527,109.915,18.527,158.791,28.253l-.157.789c-48.865-9.724-102.249-18.722-158.768-28.248-50.6-8.529-102.924-17.348-156.753-27.473-22.209-4.17-44.744-8.57-64.124-12.367-74.457-14.6-141.347-26.107-205.958-18.964a280.445,280.445,0,0,0-64.5,14.717c-55.56,20.068-100.919,58.453-144.784,95.574l-5.729,4.845c-15.429,12.976-31.369,26.254-46.782,39.1-47.147,39.278-95.9,79.893-142.606,122.124q-6.428,5.811-12.815,11.662l-1.93,1.767c-33.422,30.6-67.981,62.246-109.834,75.184-17.032,5.281-35.639,7.663-56.891,7.285-19.922-.324-40.159-3.157-57.563-5.787-46.084-7.049-92.422-15.738-147.82-26.617l-6.772-1.33c-18.31-3.6-37.242-7.315-55.89-10.861-48.614-9.246-95.961-16.721-140.7-6.668-1.582.355-3.18.736-4.748,1.133-33.75,8.535-66.792,26.67-98.207,53.9-31.879,27.636-60.259,60.127-87.705,91.548-21.166,24.231-43.053,49.287-66.49,72.079-65.641,63.834-131.737,97.317-196.45,99.524l-.027-.8c64.51-2.2,130.423-35.606,195.916-99.3,23.413-22.77,45.29-47.814,66.444-72.032,27.465-31.442,55.864-63.953,87.785-91.626,31.509-27.316,64.662-45.51,98.536-54.076,1.575-.4,3.179-.781,4.768-1.137,44.917-10.08,92.331-2.6,141.031,6.663,18.65,3.547,37.584,7.265,55.9,10.862l6.773,1.33c55.387,10.876,101.715,19.564,147.786,26.61,17.378,2.626,37.583,5.455,57.456,5.778,21.164.377,39.69-1.995,56.638-7.249,41.68-12.884,76.172-44.466,109.529-75.009l1.93-1.766q6.391-5.851,12.818-11.666c46.721-42.241,95.478-82.862,142.631-122.145,15.413-12.841,31.351-26.119,46.779-39.094l5.727-4.844c43.92-37.167,89.335-75.6,145.031-95.716a270.79,270.79,0,0,1,45.3-11.979" transform="translate(-314.353 -310.968)" fill="url(#a)"/></g></g><g transform="translate(100.037 85.437)"><g clip-path="url(#bm)"><path d="M1766.915,289.067q7.022-1.239,14.221-2.15c66.917-8.423,138.164,4.678,205.4,18.817q24.008,5.045,47.863,10.139l15.932,3.387q18.193,3.869,36.214,7.684c101.132,21.431,196.656,41.675,282.017,65.36l-.215.775c-85.337-23.678-180.848-43.919-281.968-65.347q-18.017-3.819-36.215-7.685l-15.932-3.388q-23.849-5.072-47.861-10.138c-67.173-14.126-138.343-27.214-205.138-18.807a267.6,267.6,0,0,0-64.107,16.011c-53.83,21.051-97.184,60.262-139.11,98.184q-4.244,3.839-8.489,7.67c-29.917,26.867-61.31,54.139-91.67,80.514-31.165,27.073-63.389,55.068-94.719,83.214q-6.414,5.764-12.805,11.551c-34.126,30.883-69.413,62.817-112.667,74.748-17.083,4.723-35.821,6.461-57.284,5.313-19.266-1.007-38.948-4.318-57.457-7.623-45.1-8.119-91.773-17.462-136.906-26.5l-10.036-2.009c-18.486-3.7-40.347-8.042-62.338-12.224-48.346-9.2-95.441-16.551-140.023-5.778-1.559.377-3.145.784-4.712,1.208-32.589,8.845-65.186,27.6-96.884,55.759-31.718,28.169-60.114,60.888-87.576,92.529-22.208,25.587-45.171,52.046-69.841,76.063-67.219,65.44-135.1,99.533-201.754,101.338l-.021-.8c66.446-1.8,134.145-35.816,201.215-101.11,24.645-23.994,47.6-50.439,69.794-76.013,27.479-31.661,55.893-64.4,87.648-92.6,31.793-28.237,64.5-47.055,97.209-55.933,1.574-.427,3.166-.835,4.733-1.214,44.747-10.812,91.927-3.443,140.362,5.77,21.995,4.183,43.859,8.527,62.346,12.225l10.038,2.01c45.129,9.034,91.794,18.377,136.889,26.493,18.482,3.3,38.136,6.607,57.356,7.611,21.376,1.143,40.028-.585,57.027-5.285,43.07-11.879,78.286-43.749,112.342-74.569q6.392-5.787,12.807-11.552c31.334-28.152,63.562-56.149,94.729-83.224,30.358-26.372,61.748-53.642,91.659-80.5q4.245-3.828,8.488-7.669c41.979-37.97,85.389-77.232,139.356-98.336a261.61,261.61,0,0,1,50.079-13.909" transform="translate(-332.837 -284.263)" fill="url(#a)"/></g></g><g transform="translate(105.593 77.337)"><g clip-path="url(#bo)"><path d="M1790.323,262.008q4.683-.826,9.442-1.5c68.825-9.728,141.7,4.532,204.606,18.662,19.709,4.424,40.471,9.229,63.471,14.687,135.778,32.253,234.756,60.123,320.927,90.366l-.267.759c-86.144-30.234-185.1-58.1-320.847-90.343-23-5.458-43.755-10.261-63.461-14.685-62.836-14.114-135.626-28.359-204.317-18.649a256.134,256.134,0,0,0-63.718,17.3c-52.313,22.047-93.852,62.186-134.024,101q-5.332,5.152-10.663,10.284c-46.81,44.86-96.936,89.387-145.411,132.449q-18.994,16.871-37.977,33.79-6.4,5.716-12.8,11.438c-32.323,28.917-68.958,61.694-113.572,72.545-17.141,4.177-36.007,5.27-57.678,3.342-18.554-1.635-36.949-5.25-57.349-9.458q-27.823-5.767-55.939-11.68c-29.52-6.186-60.045-12.583-90.125-18.714-22.81-4.649-43.1-8.658-62.016-12.257-48.081-9.146-94.913-16.4-139.338-4.888-1.571.406-3.144.839-4.677,1.285-31.841,9.24-63.1,28.085-95.564,57.613-31.5,28.651-59.873,61.541-87.311,93.348-23.292,27-47.375,54.918-73.327,80.209-31.219,30.422-63.229,54.534-95.144,71.668-37.52,20.143-75.175,30.735-111.915,31.484l-.016-.8c68.376-1.393,137.862-36.022,206.513-102.924,25.926-25.266,50-53.171,73.279-80.157,27.454-31.825,55.843-64.733,87.379-93.418,32.556-29.612,63.919-48.516,95.881-57.79,1.54-.448,3.121-.882,4.7-1.291,44.584-11.551,91.516-4.287,139.691,4.877,18.923,3.6,39.211,7.609,62.026,12.259,30.082,6.132,60.607,12.528,90.128,18.715q28.091,5.888,55.938,11.681c20.374,4.2,38.745,7.813,57.256,9.444,21.582,1.921,40.361.836,57.416-3.322,44.418-10.8,80.973-43.509,113.226-72.364q6.4-5.721,12.8-11.437,18.965-16.929,37.978-33.793c48.469-43.055,98.589-87.577,145.388-132.426q5.333-5.125,10.661-10.282c40.225-38.868,81.819-79.06,134.27-101.165a253,253,0,0,1,54.476-15.859" transform="translate(-351.321 -257.308)" fill="url(#a)"/></g></g><g transform="translate(111.148 69.297)"><g clip-path="url(#bq)"><path d="M1813.365,235.08q2.5-.441,5.027-.839c67.242-10.557,140.76,3.429,203.808,18.5,20.555,4.914,41.8,10.246,63.148,15.85,119,31.253,227.887,67.485,323.622,107.688l-.311.742c-95.7-40.189-204.547-76.408-323.515-107.652-21.341-5.6-42.581-10.933-63.131-15.845-62.971-15.055-136.393-29.027-203.5-18.491a245.916,245.916,0,0,0-63.329,18.6c-50.973,23.061-90.857,64.216-129.428,104.015q-6.175,6.372-12.346,12.705c-59.84,61.154-124.489,119.17-180.387,168.748q-6.391,5.668-12.788,11.325c-37.519,33.178-72.029,61.371-114.476,70.341-17.209,3.643-36.206,4.09-58.071,1.371-19.158-2.374-38.467-6.9-57.14-11.269l-.1-.024c-53.056-12.456-100.546-23.016-145.185-32.283-21.191-4.4-41.947-8.535-61.694-12.291-47.825-9.1-94.418-16.249-138.653-4-1.55.43-3.112.887-4.642,1.361-31.03,9.6-60.977,28.494-94.243,59.468-31.222,29.072-59.521,62.068-86.889,93.978-24.423,28.476-49.676,57.921-76.967,84.542-31.9,31.113-64.718,55.758-97.553,73.251-38.512,20.517-77.139,31.189-114.811,31.717l-.012-.8c69.326-.974,142.566-37.191,211.814-104.739,27.264-26.6,52.507-56.028,76.918-84.49,27.383-31.927,55.7-64.94,86.952-94.043,33.357-31.06,63.4-50.014,94.553-59.649,1.537-.475,3.107-.935,4.664-1.367,44.4-12.3,91.095-5.133,139.019,3.983,19.75,3.757,40.511,7.893,61.706,12.293,44.647,9.269,92.144,19.831,145.206,32.288l.1.023c18.652,4.369,37.939,8.886,57.054,11.255,21.776,2.707,40.68,2.264,57.806-1.359,42.256-8.93,76.679-37.056,114.11-70.157q6.4-5.657,12.786-11.325c55.889-49.568,120.525-107.572,180.346-168.708q6.175-6.321,12.344-12.7c38.623-39.854,78.561-81.065,129.674-104.189a244.936,244.936,0,0,1,58.509-17.821" transform="translate(-369.802 -230.557)" fill="url(#a)"/></g></g><g transform="translate(116.703 61.14)"><g clip-path="url(#bs)"><path d="M1836.026,207.9c67.139-11.846,139.321,1.739,204.006,18.151a2048.863,2048.863,0,0,1,389.138,142.021l-.351.724a2048.132,2048.132,0,0,0-388.986-141.966c-85.129-21.6-183.257-38.3-265.616,1.559-49.779,24.092-88.133,66.337-125.225,107.19q-6.822,7.515-13.636,14.965c-51.562,56.166-111.988,114.147-190.164,182.47-35.966,31.434-71.854,60.3-115.381,68.139-37.633,6.753-75.8-3.272-112.757-12.982l-2.84-.746c-67.711-17.771-136.912-33.414-205.679-46.495-47.573-9.05-93.924-16.094-137.97-3.109-40.645,11.986-73.471,39.836-97.528,62.76-30.874,29.419-59.044,62.448-86.287,94.388-25.611,30.028-52.093,61.077-80.79,89.1-32.574,31.8-66.206,56.982-99.961,74.834-39.5,20.891-79.1,31.64-117.708,31.949l-.006-.8c89.979-.717,167.733-58.341,217.112-106.553,28.671-27.993,55.142-59.029,80.741-89.042,27.255-31.956,55.439-65,86.344-94.449,24.123-22.986,57.045-50.915,97.855-62.948,44.218-13.046,90.674-5.979,138.349,3.09,68.786,13.084,138,28.731,205.731,46.507l2.842.746c36.721,9.648,74.691,19.624,111.951,13.05l.458-.082c43.325-7.8,79.117-36.6,114.995-67.952,78.152-68.3,138.559-126.265,190.1-182.409q6.823-7.432,13.633-14.961c37.144-40.91,75.551-83.213,125.47-107.374a236.1,236.1,0,0,1,62.159-19.765" transform="translate(-388.287 -203.423)" fill="url(#a)"/></g></g></g></g></g></g></g></svg>