<svg xmlns="http://www.w3.org/2000/svg" style="display: none;">
    <!-- Unchecked SVG -->
    <symbol id="unchecked" viewBox="0 0 16 16">
        <path d="M1.615,8v4.843a1.469,1.469,0,0,0,.684,1.3,1.6,1.6,0,0,0,.824.235q.658.032,1.316.032h7.615c.278,0,.567-.011.845-.032a1.457,1.457,0,0,0,1.476-1.472c.032-.608.032-1.216.032-1.813V8.021a.736.736,0,0,1,.738-.8.752.752,0,0,1,.856.8c0,1.568,0,3.136-.011,4.7A3.193,3.193,0,0,1,15.4,14.72a3.11,3.11,0,0,1-2.321,1.237c-.4.032-.8.043-1.2.043-2.845,0-5.679,0-8.524-.011a3.4,3.4,0,0,1-1.872-.448A3.059,3.059,0,0,1,.043,13.109,9.9,9.9,0,0,1,0,11.979V3.371A3.466,3.466,0,0,1,.439,1.5,3.1,3.1,0,0,1,2.888.053,11.659,11.659,0,0,1,4.257,0H11.07a1.961,1.961,0,0,1,.353.021.772.772,0,0,1,.588.821.732.732,0,0,1-.706.736H3.968q-.433,0-.866.032A1.459,1.459,0,0,0,1.626,3.093c-.021.523-.032,1.035-.032,1.557V7.989h.032Z"/>
    </symbol>
    
    <!-- Checked SVG -->
    <symbol id="checked" viewBox="0 0 16 16">
        <path d="M1.615,8v4.843a1.469,1.469,0,0,0,.684,1.3,1.6,1.6,0,0,0,.824.235q.658.032,1.316.032h7.615c.278,0,.567-.011.845-.032a1.457,1.457,0,0,0,1.476-1.472c.032-.608.032-1.216.032-1.813V8.021a.736.736,0,0,1,.738-.8.752.752,0,0,1,.856.8c0,1.568,0,3.136-.011,4.7A3.193,3.193,0,0,1,15.4,14.72a3.11,3.11,0,0,1-2.321,1.237c-.4.032-.8.043-1.2.043-2.845,0-5.679,0-8.524-.011a3.4,3.4,0,0,1-1.872-.448A3.059,3.059,0,0,1,.043,13.109,9.9,9.9,0,0,1,0,11.979V3.371A3.466,3.466,0,0,1,.439,1.5,3.1,3.1,0,0,1,2.888.053,11.659,11.659,0,0,1,4.257,0H11.07a1.961,1.961,0,0,1,.353.021.772.772,0,0,1,.588.821.732.732,0,0,1-.706.736H3.968q-.433,0-.866.032A1.459,1.459,0,0,0,1.626,3.093c-.021.523-.032,1.035-.032,1.557V7.989h.032Z" fill="#ed204c"/>
        <path d="M7.418,7.986a1.849,1.849,0,0,1,.176-.23Q10.885,4.4,14.166,1.039a.823.823,0,0,1,.548-.3.714.714,0,0,1,.686.409.706.706,0,0,1-.059.778c-.039.06-.1.11-.147.17Q11.61,5.765,8.016,9.433a.716.716,0,0,1-1.175,0L4.725,7.277a.692.692,0,0,1-.186-.768A.706.706,0,0,1,5.156,6a.728.728,0,0,1,.627.259c.5.509,1,1.018,1.489,1.527.039.05.078.1.147.2Z" transform="translate(0.509 1.261)" fill="#ed204c"/>
    </symbol>
</svg>